<svg width="446" height="438" viewBox="0 0 446 438" fill="none" xmlns="http://www.w3.org/2000/svg">
<path fill-rule="evenodd" clip-rule="evenodd" d="M242.612 86.2127C286.272 93.7705 330.414 97.2943 364.111 126.056C400.737 157.317 423.03 200.137 431.593 247.513C442.413 307.383 463.598 382.588 417.693 422.533C371.848 462.424 303.388 412.636 242.612 411.953C183.251 411.285 120.562 451.943 71.4271 418.639C18.227 382.58 0.2277 311.766 0.00225707 247.513C-0.223982 183.033 16.5133 110.89 70.222 75.1821C120.064 42.0442 183.631 76.0027 242.612 86.2127Z" fill="#38BE76"/>
<path d="M221.93 384.199C322.972 384.199 404.882 336.897 404.882 278.546C404.882 220.196 322.972 172.894 221.93 172.894C120.889 172.894 38.9784 220.196 38.9784 278.546C38.9784 336.897 120.889 384.199 221.93 384.199Z" fill="#FAFAFA"/>
<path d="M124.673 233.482C163.402 211.147 226.207 211.147 265.015 233.482C297.883 252.411 302.873 281.398 279.984 303.415L365.282 352.044C370.51 355.054 370.51 359.885 365.282 362.895L357.6 367.33C352.373 370.339 344.136 370.102 339.067 366.775L264.619 314.741C225.811 336.917 163.322 336.838 124.673 314.503C85.944 292.169 85.944 255.895 124.673 233.482Z" fill="#E6E6E6"/>
<path d="M140.434 36.8281L133.702 40.7089C133.702 40.3921 133.781 40.0753 133.781 39.8377V37.8577C133.781 34.3729 131.326 33.0265 128.316 34.6897C127.128 35.4025 126.019 36.5113 125.069 37.7785C124.594 33.4225 121.188 31.7593 116.99 34.2145C112.476 36.8281 108.833 43.0849 108.833 48.3121V51.2425C108.833 52.5889 109.07 53.6977 109.546 54.6481L103.922 57.8953C102.259 58.8457 100.913 61.2217 100.913 63.1225C100.913 65.0233 102.259 65.8153 103.922 64.8649L140.354 43.7977C142.018 42.8473 143.364 40.4713 143.364 38.5705C143.443 36.6697 142.097 35.8777 140.434 36.8281Z" fill="#EBEBEB"/>
<path d="M51.8088 54.3311L55.6104 51.4007V43.0055C55.6104 36.3527 60.9168 28.6703 66.6192 25.4231C72.3216 22.0967 76.9944 24.7895 76.9944 31.4423V32.6303C78.2616 30.5711 80.004 28.9079 81.8256 27.7991C85.944 25.4231 89.2704 27.3239 89.2704 32.0759V32.6303L94.5768 29.5415C97.2696 27.9575 99.4872 29.2247 99.4872 32.3927C99.4872 35.5607 97.2696 39.3623 94.5768 40.9463L51.8088 65.6567C49.116 67.2407 46.8984 65.9735 46.8984 62.8055C46.8984 59.6375 49.116 55.8359 51.8088 54.3311Z" fill="#EBEBEB"/>
<path d="M107.962 248.054V272.131C107.962 285.199 116.594 298.267 133.86 308.246C168.47 328.205 224.544 328.205 259.075 308.246C276.341 298.267 284.974 285.199 284.974 272.131V248.054C284.974 234.986 276.341 221.918 259.075 211.939C224.465 191.981 168.391 191.981 133.86 211.939C116.594 221.918 107.962 234.986 107.962 248.054ZM276.499 248.054C276.499 258.509 268.817 268.725 254.878 276.804C239.434 285.753 218.683 290.664 196.507 290.664C174.331 290.664 153.581 285.753 138.137 276.804C124.198 268.725 116.515 258.509 116.515 248.054C116.515 237.6 124.198 227.383 138.137 219.305C153.581 210.355 174.331 205.445 196.507 205.445C218.683 205.445 239.434 210.355 254.878 219.305C268.817 227.383 276.499 237.6 276.499 248.054Z" fill="#3FA76F"/>
<path opacity="0.2" d="M107.962 248.054V272.131C107.962 285.199 116.594 298.267 133.86 308.246C168.47 328.205 224.544 328.205 259.075 308.246C276.341 298.267 284.974 285.199 284.974 272.131V248.054C284.974 234.986 276.341 221.918 259.075 211.939C224.465 191.981 168.391 191.981 133.86 211.939C116.594 221.918 107.962 234.986 107.962 248.054ZM276.499 248.054C276.499 258.509 268.817 268.725 254.878 276.804C239.434 285.753 218.683 290.664 196.507 290.664C174.331 290.664 153.581 285.753 138.137 276.804C124.198 268.725 116.515 258.509 116.515 248.054C116.515 237.6 124.198 227.383 138.137 219.305C153.581 210.355 174.331 205.445 196.507 205.445C218.683 205.445 239.434 210.355 254.878 219.305C268.817 227.383 276.499 237.6 276.499 248.054Z" fill="white"/>
<path opacity="0.6" d="M284.974 274.428C283.627 282.744 279.984 288.921 265.253 300.405C244.423 316.641 191.834 323.294 161.263 313.156C132.434 303.652 123.247 285.04 123.247 272.289L123.326 264.765C118.891 259.459 116.515 253.756 116.515 247.975C116.515 242.035 118.97 236.174 123.643 230.788L123.722 220.255H122.059C112.634 228.65 107.882 238.312 107.882 247.975V272.052C107.882 285.12 116.515 298.188 133.781 308.167C168.391 328.125 224.465 328.125 258.996 308.167C275.47 298.9 284.102 286.704 284.974 274.428Z" fill="#3FA76F"/>
<path d="M259.154 211.86C224.544 191.902 168.47 191.902 133.939 211.86C99.3288 231.818 99.3288 264.211 133.939 284.17C168.55 304.128 224.623 304.128 259.154 284.17C293.765 264.211 293.765 231.898 259.154 211.86ZM254.878 276.804C239.434 285.754 218.683 290.664 196.507 290.664C174.331 290.664 153.581 285.754 138.137 276.804C124.198 268.726 116.515 258.509 116.515 248.054C116.515 237.6 124.198 227.383 138.137 219.305C153.581 210.355 174.331 205.445 196.507 205.445C218.683 205.445 239.434 210.355 254.878 219.305C268.817 227.383 276.499 237.6 276.499 248.054C276.499 258.509 268.817 268.726 254.878 276.804Z" fill="#3FA76F"/>
<path opacity="0.5" d="M259.154 211.86C224.544 191.902 168.47 191.902 133.939 211.86C99.3288 231.818 99.3288 264.211 133.939 284.17C168.55 304.128 224.623 304.128 259.154 284.17C293.765 264.211 293.765 231.898 259.154 211.86ZM254.878 276.804C239.434 285.754 218.683 290.664 196.507 290.664C174.331 290.664 153.581 285.754 138.137 276.804C124.198 268.726 116.515 258.509 116.515 248.054C116.515 237.6 124.198 227.383 138.137 219.305C153.581 210.355 174.331 205.445 196.507 205.445C218.683 205.445 239.434 210.355 254.878 219.305C268.817 227.383 276.499 237.6 276.499 248.054C276.499 258.509 268.817 268.726 254.878 276.804Z" fill="white"/>
<path d="M276.499 248.054C276.499 252.173 275.311 256.212 273.014 260.093C269.53 253.994 263.352 248.292 254.798 243.382C239.354 234.432 218.604 229.522 196.428 229.522C174.252 229.522 153.502 234.432 138.137 243.382C129.662 248.292 123.406 253.994 119.921 260.093C117.624 256.212 116.515 252.173 116.515 248.054C116.515 237.6 124.198 227.383 138.216 219.305C153.66 210.434 174.41 205.445 196.507 205.445C218.683 205.445 239.434 210.355 254.878 219.305C268.817 227.383 276.499 237.6 276.499 248.054Z" fill="#3FA76F"/>
<path opacity="0.3" d="M276.499 248.054C276.499 252.173 275.311 256.212 273.014 260.093C269.53 253.994 263.352 248.292 254.798 243.382C239.354 234.432 218.604 229.522 196.428 229.522C174.252 229.522 153.502 234.432 138.137 243.382C129.662 248.292 123.406 253.994 119.921 260.093C117.624 256.212 116.515 252.173 116.515 248.054C116.515 237.6 124.198 227.383 138.216 219.305C153.66 210.434 174.41 205.445 196.507 205.445C218.683 205.445 239.434 210.355 254.878 219.305C268.817 227.383 276.499 237.6 276.499 248.054Z" fill="white"/>
<path opacity="0.6" d="M138.216 219.305C124.277 227.383 116.515 237.6 116.515 248.054C116.515 252.173 117.703 256.212 119.921 260.093C123.485 253.994 129.662 248.292 138.137 243.382C141.622 241.402 145.344 239.58 149.304 237.996C145.898 239.263 135.602 242.669 139.325 232.769C143.839 221.047 165.698 208.375 181.855 206.237C165.382 207.9 150.175 212.414 138.216 219.305Z" fill="#3FA76F"/>
<path opacity="0.4" d="M254.878 230.235C239.434 221.285 218.683 216.375 196.507 216.375C174.331 216.375 153.581 221.285 138.137 230.235C126.653 236.887 119.366 244.966 117.228 253.519C119.446 261.994 126.653 270.151 138.137 276.804C153.581 285.754 174.331 290.664 196.507 290.664C218.683 290.664 239.434 285.754 254.878 276.804C266.362 270.151 273.648 262.073 275.786 253.519C273.648 244.966 266.362 236.887 254.878 230.235Z" fill="white"/>
<path d="M132.276 259.063C137.186 262.944 142.81 265.399 148.591 267.379C154.294 269.28 160.234 270.705 166.174 271.735C178.054 273.715 190.171 274.269 202.289 273.794C208.308 273.557 214.327 273.002 220.346 272.131C226.366 271.26 232.306 270.23 238.087 268.646C243.869 267.062 249.571 265.161 254.798 262.31C256.145 261.597 257.412 260.805 258.6 260.013C259.867 259.142 260.976 258.271 262.085 257.241C263.194 256.212 264.144 255.103 265.015 253.836C265.886 252.568 266.52 251.222 266.995 249.717C267.074 251.301 266.758 252.885 266.203 254.469C265.649 255.974 264.857 257.479 263.906 258.825C263.035 260.172 261.926 261.439 260.818 262.627C259.709 263.815 258.442 264.924 257.174 265.874C252.026 269.913 246.166 272.844 240.226 275.22C234.206 277.516 228.029 279.18 221.693 280.368C215.436 281.556 209.1 282.268 202.685 282.585C189.934 283.14 177.024 281.952 164.669 278.546C158.491 276.804 152.472 274.507 146.849 271.418C144.077 269.834 141.305 268.092 138.85 266.112C138.216 265.636 137.662 265.082 137.028 264.528C136.474 263.973 135.84 263.419 135.286 262.864C134.177 261.597 133.147 260.33 132.276 259.063Z" fill="white"/>
<path d="M256.541 299.534C256.541 295.574 259.313 290.743 262.718 288.763C264.382 287.733 265.966 287.654 267.074 288.288L286.795 299.534C287.904 300.168 288.617 301.593 288.617 303.494C288.617 307.454 285.845 312.285 282.439 314.265C280.697 315.295 279.192 315.374 278.083 314.741L258.362 303.494C257.254 302.94 256.541 301.514 256.541 299.534Z" fill="#37474F"/>
<path d="M258.362 303.573C257.254 302.94 256.541 301.514 256.541 299.534C256.541 298.029 256.937 296.445 257.57 294.861L285.924 311.097C284.974 312.444 283.786 313.553 282.439 314.345C280.697 315.374 279.192 315.453 278.083 314.82L258.362 303.573Z" fill="#263238"/>
<path d="M353.957 331.689L291.151 299.693L291.072 299.613C289.646 298.821 287.666 298.98 285.449 300.247C281.014 302.861 277.45 309.117 277.45 314.265C277.45 316.879 278.4 318.621 279.826 319.493L338.83 357.509C341.126 358.934 343.898 359.805 346.75 359.805C354.986 359.805 361.718 353.073 361.718 344.837C361.798 339.134 358.63 334.224 353.957 331.689Z" fill="#455A64"/>
<path d="M279.826 319.493L338.83 357.509C341.126 358.934 343.898 359.806 346.75 359.806C354.67 359.806 361.164 353.628 361.639 345.787C360.53 350.698 352.373 354.895 342.314 349.272C332.177 343.649 294.953 320.047 278.004 310.306C277.608 311.652 277.37 312.998 277.37 314.266C277.45 316.879 278.4 318.701 279.826 319.493Z" fill="#37474F"/>
<path d="M279.826 319.493C278.321 318.621 277.45 316.879 277.45 314.265C277.45 309.117 281.014 302.861 285.449 300.247C287.666 298.98 289.567 298.821 291.072 299.613L296.616 302.465C295.111 301.673 293.131 301.831 290.834 303.098C286.241 305.791 282.598 312.206 282.598 317.513C282.598 320.126 283.469 322.027 285.053 322.898" fill="#3FA76F"/>
<path opacity="0.2" d="M285.053 322.898C283.548 322.027 282.677 320.126 282.598 317.513C282.598 316.166 282.835 314.82 283.231 313.394C281.33 312.286 279.588 311.256 278.004 310.306C277.766 311.018 277.608 311.652 277.529 312.365C277.45 312.682 277.45 312.998 277.45 313.394C277.45 313.711 277.45 314.028 277.45 314.345C277.45 316.958 278.4 318.701 279.826 319.572L285.053 322.898Z" fill="black"/>
<path d="M390.785 226.354C388.646 225.086 385.637 225.245 382.31 227.146L321.96 261.994C315.545 265.716 310.318 274.586 310.318 281.714C310.318 285.199 311.585 287.654 313.565 288.842C314.674 289.476 318.95 291.931 320.059 292.565C322.198 293.753 325.128 293.594 328.375 291.694L388.726 256.846C395.141 253.123 400.368 244.332 400.368 237.125C400.368 233.64 399.101 231.185 397.121 229.997C396.091 229.442 391.814 226.987 390.785 226.354Z" fill="#E0E0E0"/>
<path d="M323.069 293.04C319.426 293.04 317.129 290.189 317.129 285.516C317.129 278.467 322.277 269.755 328.613 266.112L388.963 231.264C390.785 230.235 392.527 229.68 394.111 229.68C397.754 229.68 400.051 232.531 400.051 237.204C400.051 244.253 394.903 252.965 388.567 256.608L328.217 291.456C326.474 292.486 324.653 293.04 323.069 293.04Z" fill="#FAFAFA"/>
<path d="M394.111 230.076C397.517 230.076 399.655 232.769 399.655 237.204C399.655 244.095 394.586 252.648 388.409 256.291L328.058 291.139C326.316 292.169 324.574 292.644 323.069 292.644C321.406 292.644 320.059 292.011 319.109 290.902C318.079 289.635 317.525 287.813 317.525 285.595C317.525 278.705 322.594 270.151 328.771 266.508L389.122 231.66C390.864 230.631 392.606 230.076 394.111 230.076ZM394.111 229.284C392.527 229.284 390.706 229.839 388.726 230.947L328.375 265.795C321.96 269.518 316.733 278.309 316.733 285.516C316.733 290.506 319.267 293.436 323.069 293.436C324.653 293.436 326.474 292.882 328.454 291.773L388.805 256.925C395.22 253.203 400.447 244.411 400.447 237.204C400.447 232.135 397.834 229.284 394.111 229.284Z" fill="#EBEBEB"/>
<path d="M337.879 273.557C338.117 273.081 338.117 272.606 337.879 272.527C337.8 272.448 336.058 271.497 335.899 271.339C335.82 271.26 335.741 271.26 335.582 271.339L333.761 272.052L333.127 270.785C333.127 270.705 333.048 270.626 332.969 270.626C332.731 270.468 330.989 269.517 330.989 269.438C330.751 269.28 330.276 269.597 330.118 270.151L328.85 274.269C328.771 274.507 328.613 274.745 328.454 274.903L325.603 277.041C325.128 277.358 324.97 278.229 325.286 278.467L327.346 279.972C327.504 280.051 327.504 280.289 327.504 280.526L327.029 284.565C327.029 284.882 327.108 285.041 327.187 285.12C327.346 285.199 329.088 286.229 329.246 286.308C329.405 286.387 329.642 286.308 329.88 286.07L332.414 282.823C332.573 282.585 332.731 282.506 332.89 282.506L335.424 282.823C335.82 282.902 336.295 282.11 336.216 281.635L335.741 278.15C335.741 277.913 335.741 277.675 335.899 277.437L337.879 273.557Z" fill="#3FA76F"/>
<path opacity="0.15" d="M337.879 272.448C337.8 272.369 337.721 272.369 337.562 272.448L334.711 273.557C334.553 273.636 334.394 273.557 334.315 273.398L333.682 272.052L335.503 271.339C335.582 271.26 335.741 271.26 335.82 271.339C336.058 271.418 337.8 272.448 337.879 272.448Z" fill="white"/>
<path opacity="0.15" d="M330.91 275.378C330.83 275.616 330.672 275.854 330.514 276.012L327.662 278.15C327.504 278.23 327.425 278.388 327.346 278.546L325.286 277.358C325.366 277.2 325.445 277.042 325.603 276.962L328.454 274.824C328.613 274.666 328.771 274.428 328.85 274.19L330.91 275.378Z" fill="white"/>
<path opacity="0.1" d="M332.969 270.547C332.731 270.389 332.256 270.706 332.098 271.26L330.83 275.378L328.771 274.19L330.038 270.072C330.197 269.518 330.593 269.201 330.91 269.359C330.989 269.438 332.731 270.389 332.969 270.547Z" fill="black"/>
<path opacity="0.25" d="M329.405 281.081L327.425 279.893L325.366 278.388C325.128 278.23 325.128 277.754 325.366 277.358L327.425 278.546C327.187 278.942 327.187 279.418 327.425 279.576L329.405 281.081Z" fill="black"/>
<path opacity="0.15" d="M329.088 285.674C329.088 285.991 329.167 286.149 329.246 286.229C329.088 286.149 327.346 285.12 327.187 285.041C327.029 284.961 326.95 284.803 327.029 284.486L327.504 280.447C327.504 280.209 327.504 280.051 327.346 279.893L329.326 281.081C329.405 281.16 329.484 281.397 329.484 281.635L329.088 285.674Z" fill="black"/>
<path d="M333.127 270.706L334.394 273.399C334.474 273.557 334.632 273.636 334.79 273.557L337.642 272.448C338.117 272.29 338.275 272.923 337.958 273.478L335.899 277.279C335.741 277.517 335.741 277.834 335.741 277.992L336.216 281.477C336.295 282.031 335.82 282.744 335.424 282.665L332.89 282.348C332.731 282.348 332.573 282.427 332.414 282.665L329.88 285.912C329.484 286.387 329.009 286.229 329.088 285.595L329.563 281.556C329.563 281.319 329.563 281.081 329.405 281.002L327.346 279.497C327.029 279.259 327.187 278.388 327.662 278.071L330.514 275.933C330.672 275.775 330.83 275.537 330.91 275.299L332.177 271.181C332.335 270.627 332.89 270.31 333.127 270.706Z" fill="#3FA76F"/>
<path opacity="0.5" d="M333.127 270.706L334.394 273.399C334.474 273.557 334.632 273.636 334.79 273.557L337.642 272.448C338.117 272.29 338.275 272.923 337.958 273.478L335.899 277.279C335.741 277.517 335.741 277.834 335.741 277.992L336.216 281.477C336.295 282.031 335.82 282.744 335.424 282.665L332.89 282.348C332.731 282.348 332.573 282.427 332.414 282.665L329.88 285.912C329.484 286.387 329.009 286.229 329.088 285.595L329.563 281.556C329.563 281.319 329.563 281.081 329.405 281.002L327.346 279.497C327.029 279.259 327.187 278.388 327.662 278.071L330.514 275.933C330.672 275.775 330.83 275.537 330.91 275.299L332.177 271.181C332.335 270.627 332.89 270.31 333.127 270.706Z" fill="white"/>
<path d="M352.056 265.399C352.294 264.924 352.294 264.449 352.056 264.369C351.977 264.29 350.234 263.34 350.076 263.181C349.997 263.102 349.918 263.102 349.759 263.181L347.938 263.894L347.304 262.627C347.304 262.548 347.225 262.469 347.146 262.469C346.908 262.31 345.166 261.36 345.166 261.281C344.928 261.122 344.453 261.439 344.294 261.993L343.027 266.112C342.948 266.349 342.79 266.587 342.631 266.745L339.78 268.884C339.305 269.201 339.146 270.072 339.463 270.309L341.522 271.814C341.681 271.893 341.681 272.131 341.681 272.369L341.206 276.408C341.206 276.725 341.285 276.883 341.364 276.962C341.522 277.041 343.265 278.071 343.423 278.15C343.582 278.229 343.819 278.15 344.057 277.913L346.591 274.665C346.75 274.428 346.908 274.349 347.066 274.349L349.601 274.665C349.997 274.745 350.472 273.953 350.393 273.477L349.918 269.993C349.918 269.755 349.918 269.517 350.076 269.28L352.056 265.399Z" fill="#3FA76F"/>
<path opacity="0.15" d="M351.977 264.29C351.898 264.211 351.818 264.211 351.66 264.29L348.809 265.399C348.65 265.478 348.492 265.399 348.413 265.241L347.779 263.894L349.601 263.181C349.68 263.102 349.838 263.102 349.918 263.181C350.234 263.261 351.898 264.29 351.977 264.29Z" fill="white"/>
<path opacity="0.15" d="M345.007 267.221C344.928 267.458 344.77 267.696 344.611 267.854L341.76 270.072C341.602 270.151 341.522 270.309 341.443 270.468L339.384 269.28C339.463 269.121 339.542 268.963 339.701 268.884L342.552 266.745C342.71 266.587 342.869 266.349 342.948 266.112L345.007 267.221Z" fill="white"/>
<path opacity="0.1" d="M347.146 262.389C346.908 262.231 346.433 262.548 346.274 263.102L345.007 267.221L342.948 266.033L344.215 261.914C344.374 261.36 344.77 261.043 345.086 261.201C345.166 261.281 346.829 262.231 347.146 262.389Z" fill="black"/>
<path opacity="0.25" d="M343.502 272.923L341.522 271.735L339.463 270.23C339.226 270.072 339.226 269.597 339.463 269.201L341.522 270.389C341.285 270.785 341.285 271.26 341.522 271.418L343.502 272.923Z" fill="black"/>
<path opacity="0.15" d="M343.186 277.516C343.186 277.833 343.265 277.992 343.344 278.071C343.186 277.992 341.443 276.962 341.285 276.883C341.126 276.804 341.047 276.645 341.126 276.328L341.602 272.289C341.602 272.052 341.602 271.893 341.443 271.735L343.423 272.923C343.502 273.002 343.582 273.24 343.582 273.477L343.186 277.516Z" fill="black"/>
<path d="M347.225 262.548L348.492 265.241C348.571 265.399 348.73 265.478 348.888 265.399L351.739 264.29C352.214 264.132 352.373 264.766 352.056 265.32L349.997 269.122C349.838 269.359 349.838 269.676 349.838 269.834L350.314 273.319C350.393 273.874 349.918 274.586 349.522 274.507L346.987 274.19C346.829 274.19 346.67 274.27 346.512 274.507L343.978 277.754C343.582 278.23 343.106 278.071 343.186 277.438L343.661 273.398C343.661 273.161 343.661 272.923 343.502 272.844L341.443 271.339C341.126 271.102 341.285 270.23 341.76 269.914L344.611 267.775C344.77 267.617 344.928 267.379 345.007 267.142L346.274 263.023C346.433 262.469 347.066 262.152 347.225 262.548Z" fill="#3FA76F"/>
<path opacity="0.5" d="M347.225 262.548L348.492 265.241C348.571 265.399 348.73 265.478 348.888 265.399L351.739 264.29C352.214 264.132 352.373 264.766 352.056 265.32L349.997 269.122C349.838 269.359 349.838 269.676 349.838 269.834L350.314 273.319C350.393 273.874 349.918 274.586 349.522 274.507L346.987 274.19C346.829 274.19 346.67 274.27 346.512 274.507L343.978 277.754C343.582 278.23 343.106 278.071 343.186 277.438L343.661 273.398C343.661 273.161 343.661 272.923 343.502 272.844L341.443 271.339C341.126 271.102 341.285 270.23 341.76 269.914L344.611 267.775C344.77 267.617 344.928 267.379 345.007 267.142L346.274 263.023C346.433 262.469 347.066 262.152 347.225 262.548Z" fill="white"/>
<path d="M366.154 257.242C366.391 256.766 366.391 256.291 366.154 256.212C366.074 256.133 364.332 255.182 364.174 255.024C364.094 254.945 364.015 254.945 363.857 255.024L362.035 255.737L361.402 254.47C361.402 254.39 361.322 254.311 361.243 254.311C361.006 254.153 359.263 253.202 359.263 253.123C359.026 252.965 358.55 253.282 358.392 253.836L357.125 257.954C357.046 258.192 356.887 258.43 356.729 258.588L353.878 260.726C353.402 261.043 353.244 261.914 353.561 262.152L355.62 263.657C355.778 263.736 355.778 263.974 355.778 264.211L355.303 268.251C355.303 268.567 355.382 268.726 355.462 268.805C355.62 268.884 357.362 269.914 357.521 269.993C357.679 270.072 357.917 269.993 358.154 269.755L360.689 266.508C360.847 266.27 361.006 266.191 361.164 266.191L363.698 266.508C364.094 266.587 364.57 265.795 364.49 265.32L364.015 261.835C364.015 261.598 364.015 261.36 364.174 261.122L366.154 257.242Z" fill="#3FA76F"/>
<path opacity="0.15" d="M366.154 256.133C366.074 256.054 365.995 256.054 365.837 256.133L362.986 257.242C362.827 257.321 362.669 257.242 362.59 257.083L361.956 255.737L363.778 255.024C363.857 254.945 364.015 254.945 364.094 255.024C364.332 255.103 366.074 256.133 366.154 256.133Z" fill="white"/>
<path opacity="0.15" d="M359.105 259.063C359.026 259.301 358.867 259.539 358.709 259.697L355.858 261.835C355.699 261.915 355.62 262.073 355.541 262.231L353.482 261.043C353.561 260.885 353.64 260.727 353.798 260.647L356.65 258.509C356.808 258.351 356.966 258.113 357.046 257.875L359.105 259.063Z" fill="white"/>
<path opacity="0.1" d="M361.243 254.232C361.006 254.074 360.53 254.391 360.372 254.945L359.105 259.063L357.046 257.875L358.313 253.757C358.471 253.203 358.867 252.886 359.184 253.044C359.263 253.123 361.006 254.074 361.243 254.232Z" fill="black"/>
<path opacity="0.25" d="M357.679 264.766L355.699 263.578L353.64 262.073C353.402 261.915 353.402 261.439 353.64 261.043L355.699 262.231C355.462 262.627 355.462 263.103 355.699 263.261L357.679 264.766Z" fill="black"/>
<path opacity="0.15" d="M357.362 269.359C357.362 269.676 357.442 269.834 357.521 269.914C357.362 269.834 355.62 268.805 355.462 268.726C355.303 268.646 355.224 268.488 355.303 268.171L355.778 264.132C355.778 263.894 355.778 263.736 355.62 263.578L357.6 264.766C357.679 264.845 357.758 265.082 357.758 265.32L357.362 269.359Z" fill="black"/>
<path d="M361.402 254.391L362.669 257.084C362.748 257.242 362.906 257.321 363.065 257.242L365.916 256.133C366.391 255.975 366.55 256.608 366.233 257.163L364.174 260.964C364.015 261.202 364.015 261.519 364.015 261.677L364.49 265.162C364.57 265.716 364.094 266.429 363.698 266.35L361.164 266.033C361.006 266.033 360.847 266.112 360.689 266.35L358.154 269.597C357.758 270.072 357.283 269.914 357.362 269.28L357.838 265.241C357.838 265.004 357.838 264.766 357.679 264.687L355.62 263.182C355.303 262.944 355.462 262.073 355.937 261.756L358.788 259.618C358.946 259.46 359.105 259.222 359.184 258.984L360.451 254.866C360.61 254.312 361.164 253.995 361.402 254.391Z" fill="#3FA76F"/>
<path opacity="0.5" d="M361.402 254.391L362.669 257.084C362.748 257.242 362.906 257.321 363.065 257.242L365.916 256.133C366.391 255.975 366.55 256.608 366.233 257.163L364.174 260.964C364.015 261.202 364.015 261.519 364.015 261.677L364.49 265.162C364.57 265.716 364.094 266.429 363.698 266.35L361.164 266.033C361.006 266.033 360.847 266.112 360.689 266.35L358.154 269.597C357.758 270.072 357.283 269.914 357.362 269.28L357.838 265.241C357.838 265.004 357.838 264.766 357.679 264.687L355.62 263.182C355.303 262.944 355.462 262.073 355.937 261.756L358.788 259.618C358.946 259.46 359.105 259.222 359.184 258.984L360.451 254.866C360.61 254.312 361.164 253.995 361.402 254.391Z" fill="white"/>
<path d="M380.33 249.084C380.568 248.609 380.568 248.134 380.33 248.054C380.251 247.975 378.509 247.025 378.35 246.866C378.271 246.787 378.192 246.787 378.034 246.866L376.212 247.579L375.578 246.312C375.578 246.233 375.499 246.154 375.42 246.154C375.182 245.995 373.44 245.045 373.44 244.966C373.202 244.807 372.727 245.124 372.569 245.678L371.302 249.797C371.222 250.034 371.064 250.272 370.906 250.43L368.054 252.569C367.579 252.886 367.421 253.757 367.738 253.994L369.797 255.499C369.955 255.578 369.955 255.816 369.955 256.054L369.48 260.093C369.48 260.41 369.559 260.568 369.638 260.647C369.797 260.726 371.539 261.756 371.698 261.835C371.856 261.914 372.094 261.835 372.331 261.598L374.866 258.35C375.024 258.113 375.182 258.034 375.341 258.034L377.875 258.35C378.271 258.43 378.746 257.638 378.667 257.162L378.192 253.678C378.192 253.44 378.192 253.202 378.35 252.965L380.33 249.084Z" fill="#3FA76F"/>
<path opacity="0.15" d="M380.251 247.975C380.172 247.896 380.093 247.896 379.934 247.975L377.083 249.084C376.925 249.163 376.766 249.084 376.687 248.926L376.054 247.579L377.875 246.867C377.954 246.787 378.113 246.787 378.192 246.867C378.509 246.946 380.172 247.975 380.251 247.975Z" fill="white"/>
<path opacity="0.15" d="M373.282 250.906C373.202 251.143 373.044 251.381 372.886 251.539L370.034 253.678C369.876 253.757 369.797 253.915 369.718 254.074L367.658 252.886C367.738 252.727 367.817 252.569 367.975 252.49L370.826 250.351C370.985 250.193 371.143 249.955 371.222 249.718L373.282 250.906Z" fill="white"/>
<path opacity="0.1" d="M375.42 246.074C375.182 245.916 374.707 246.233 374.549 246.787L373.281 250.906L371.222 249.718L372.489 245.599C372.648 245.045 373.044 244.728 373.361 244.886C373.44 244.966 375.103 245.916 375.42 246.074Z" fill="black"/>
<path opacity="0.25" d="M371.777 256.608L369.797 255.42L367.738 253.915C367.5 253.757 367.5 253.282 367.738 252.886L369.797 254.074C369.559 254.47 369.559 254.945 369.797 255.103L371.777 256.608Z" fill="black"/>
<path opacity="0.15" d="M371.46 261.202C371.46 261.518 371.539 261.677 371.618 261.756C371.46 261.677 369.718 260.647 369.559 260.568C369.401 260.489 369.321 260.33 369.401 260.014L369.876 255.974C369.876 255.737 369.876 255.578 369.717 255.42L371.697 256.608C371.777 256.687 371.856 256.925 371.856 257.162L371.46 261.202Z" fill="black"/>
<path d="M375.499 246.233L376.766 248.926C376.846 249.084 377.004 249.163 377.162 249.084L380.014 247.975C380.489 247.817 380.647 248.451 380.33 249.005L378.271 252.807C378.113 253.044 378.113 253.361 378.113 253.519L378.588 257.004C378.667 257.559 378.192 258.271 377.796 258.192L375.262 257.875C375.103 257.875 374.945 257.955 374.786 258.192L372.252 261.439C371.856 261.915 371.381 261.756 371.46 261.123L371.935 257.083C371.935 256.846 371.935 256.608 371.777 256.529L369.718 255.024C369.401 254.787 369.559 253.916 370.034 253.599L372.886 251.46C373.044 251.302 373.202 251.064 373.282 250.827L374.549 246.708C374.707 246.154 375.341 245.837 375.499 246.233Z" fill="#3FA76F"/>
<path opacity="0.5" d="M375.499 246.233L376.766 248.926C376.846 249.084 377.004 249.163 377.162 249.084L380.014 247.975C380.489 247.817 380.647 248.451 380.33 249.005L378.271 252.807C378.113 253.044 378.113 253.361 378.113 253.519L378.588 257.004C378.667 257.559 378.192 258.271 377.796 258.192L375.262 257.875C375.103 257.875 374.945 257.955 374.786 258.192L372.252 261.439C371.856 261.915 371.381 261.756 371.46 261.123L371.935 257.083C371.935 256.846 371.935 256.608 371.777 256.529L369.718 255.024C369.401 254.787 369.559 253.916 370.034 253.599L372.886 251.46C373.044 251.302 373.202 251.064 373.282 250.827L374.549 246.708C374.707 246.154 375.341 245.837 375.499 246.233Z" fill="white"/>
<path d="M394.428 240.926C394.666 240.451 394.666 239.976 394.428 239.897C394.349 239.817 392.606 238.867 392.448 238.709C392.369 238.629 392.29 238.629 392.131 238.709L390.31 239.421L389.676 238.154C389.676 238.075 389.597 237.996 389.518 237.996C389.28 237.837 387.538 236.887 387.538 236.808C387.3 236.649 386.825 236.966 386.666 237.521L385.399 241.639C385.32 241.877 385.162 242.114 385.003 242.273L382.152 244.411C381.677 244.728 381.518 245.599 381.835 245.837L383.894 247.341C384.053 247.421 384.053 247.658 384.053 247.896L383.578 251.935C383.578 252.252 383.657 252.41 383.736 252.489C383.894 252.569 385.637 253.598 385.795 253.677C385.954 253.757 386.191 253.677 386.429 253.44L388.963 250.193C389.122 249.955 389.28 249.876 389.438 249.876L391.973 250.193C392.369 250.272 392.844 249.48 392.765 249.005L392.29 245.52C392.29 245.282 392.29 245.045 392.448 244.807L394.428 240.926Z" fill="#3FA76F"/>
<path opacity="0.15" d="M394.428 239.897C394.349 239.818 394.27 239.818 394.111 239.897L391.26 241.006C391.102 241.085 390.943 241.006 390.864 240.847L390.23 239.501L392.052 238.788C392.131 238.709 392.29 238.709 392.369 238.788C392.606 238.867 394.349 239.818 394.428 239.897Z" fill="white"/>
<path opacity="0.15" d="M387.379 242.827C387.3 243.065 387.142 243.302 386.983 243.461L384.132 245.599C383.974 245.678 383.894 245.837 383.815 245.995L381.756 244.807C381.835 244.649 381.914 244.49 382.073 244.411L384.924 242.273C385.082 242.114 385.241 241.877 385.32 241.639L387.379 242.827Z" fill="white"/>
<path opacity="0.1" d="M389.518 237.917C389.28 237.758 388.805 238.075 388.646 238.63L387.379 242.748L385.32 241.56L386.587 237.442C386.746 236.887 387.142 236.57 387.458 236.729C387.538 236.808 389.28 237.838 389.518 237.917Z" fill="black"/>
<path opacity="0.25" d="M385.954 248.45L383.974 247.262L381.914 245.758C381.677 245.599 381.677 245.124 381.914 244.728L383.974 245.916C383.736 246.312 383.736 246.787 383.974 246.946L385.954 248.45Z" fill="black"/>
<path opacity="0.15" d="M385.637 253.044C385.637 253.361 385.716 253.519 385.795 253.598C385.637 253.519 383.894 252.489 383.736 252.41C383.578 252.331 383.498 252.173 383.578 251.856L384.053 247.817C384.053 247.579 384.053 247.421 383.894 247.262L385.874 248.45C385.954 248.529 386.033 248.767 386.033 249.005L385.637 253.044Z" fill="black"/>
<path d="M389.676 238.075L390.943 240.768C391.022 240.927 391.181 241.006 391.339 240.927L394.19 239.818C394.666 239.659 394.824 240.293 394.507 240.847L392.448 244.649C392.29 244.887 392.29 245.203 392.29 245.362L392.765 248.847C392.844 249.401 392.369 250.114 391.973 250.035L389.438 249.718C389.28 249.718 389.122 249.797 388.963 250.035L386.429 253.282C386.033 253.757 385.558 253.599 385.637 252.965L386.112 248.926C386.112 248.688 386.112 248.451 385.954 248.371L383.894 246.867C383.578 246.629 383.736 245.758 384.211 245.441L387.062 243.303C387.221 243.144 387.379 242.907 387.458 242.669L388.726 238.551C388.884 237.996 389.438 237.679 389.676 238.075Z" fill="#3FA76F"/>
<path opacity="0.5" d="M389.676 238.075L390.943 240.768C391.022 240.927 391.181 241.006 391.339 240.927L394.19 239.818C394.666 239.659 394.824 240.293 394.507 240.847L392.448 244.649C392.29 244.887 392.29 245.203 392.29 245.362L392.765 248.847C392.844 249.401 392.369 250.114 391.973 250.035L389.438 249.718C389.28 249.718 389.122 249.797 388.963 250.035L386.429 253.282C386.033 253.757 385.558 253.599 385.637 252.965L386.112 248.926C386.112 248.688 386.112 248.451 385.954 248.371L383.894 246.867C383.578 246.629 383.736 245.758 384.211 245.441L387.062 243.303C387.221 243.144 387.379 242.907 387.458 242.669L388.726 238.551C388.884 237.996 389.438 237.679 389.676 238.075Z" fill="white"/>
<path d="M364.886 33.4226C364.807 33.5018 364.807 33.581 364.728 33.581C364.49 33.8186 364.094 33.8186 363.778 33.6602L360.214 31.8386L356.65 33.6602C356.333 33.8186 356.016 33.8186 355.699 33.581C355.462 33.3434 355.303 33.0266 355.382 32.7098L356.095 28.7498L353.244 25.9778C353.006 25.7402 352.927 25.4234 353.006 25.1066C353.086 24.7898 353.402 24.5522 353.719 24.473L357.679 23.9186L359.422 20.3546C359.58 20.0378 359.897 19.8794 360.214 19.8794C360.53 19.8794 360.847 20.0378 361.006 20.3546L362.748 23.9186L366.708 24.473C367.025 24.5522 367.342 24.7898 367.421 25.1066C367.5 25.4234 367.421 25.8194 367.183 25.9778L364.332 28.7498L365.045 32.7098C365.124 32.9474 365.045 33.185 364.886 33.4226ZM353.64 25.1858C353.64 25.1858 353.64 25.265 353.561 25.265C353.482 25.4234 353.561 25.5026 353.64 25.5818L356.729 28.5914L356.016 32.789C356.016 32.9474 356.016 33.0266 356.174 33.1058C356.254 33.185 356.412 33.185 356.491 33.1058L360.293 31.1258L364.094 33.1058C364.174 33.185 364.332 33.185 364.411 33.1058C364.49 33.0266 364.57 32.8682 364.57 32.789L363.857 28.5914L366.946 25.5818C367.025 25.5026 367.104 25.3442 367.025 25.265C366.946 25.1066 366.866 25.0274 366.787 25.0274L362.59 24.3938L360.689 20.5922C360.61 20.513 360.53 20.4338 360.372 20.4338C360.214 20.4338 360.134 20.513 360.055 20.5922L358.154 24.3938L353.957 25.0274C353.719 25.0274 353.64 25.1066 353.64 25.1858Z" fill="#E0E0E0"/>
<path d="M320.772 86.3279C314.832 82.8431 306.595 83.3183 297.566 88.5455C279.35 99.0791 264.54 124.898 264.54 146.203C264.54 156.895 268.262 164.419 274.361 167.904C275.786 168.696 281.251 171.864 281.251 171.864C280.618 175.982 278.954 180.259 273.569 183.506C273.252 183.744 273.41 184.061 273.727 184.219C273.886 184.298 281.806 188.892 282.122 189.05C282.281 189.13 282.36 189.13 282.518 189.13C290.755 189.13 300.338 183.586 302.952 172.102C303.982 171.626 304.932 171.151 305.962 170.518C324.178 159.984 338.988 134.165 338.988 112.86C338.988 102.168 335.266 94.6439 329.167 91.0799C327.742 90.3671 322.198 87.1199 320.772 86.3279Z" fill="#37474F"/>
<path d="M305.962 93.3765C287.746 103.91 272.935 129.729 272.935 151.034C272.935 165.449 279.746 174.161 289.805 174.953C289.409 179.546 288.062 184.694 281.885 188.337C281.41 188.654 282.043 189.209 282.439 189.209C290.676 189.209 300.259 183.665 302.873 172.181C303.902 171.705 304.853 171.23 305.883 170.597C324.099 160.063 338.909 134.244 338.909 112.939C338.988 91.6341 324.178 82.8429 305.962 93.3765Z" fill="#455A64"/>
<path d="M281.885 188.337C281.568 188.496 281.726 188.813 281.964 188.971C281.014 188.417 273.806 184.298 273.727 184.219C273.41 184.061 273.173 183.744 273.569 183.506C278.954 180.338 280.697 175.982 281.251 171.864L282.202 172.418L283.073 172.893C285.132 174.002 287.429 174.715 289.884 174.873C289.409 179.467 288.062 184.694 281.885 188.337Z" fill="#263238"/>
<path d="M302.477 154.361C301.606 153.727 301.13 152.618 301.13 150.955C301.13 149.292 301.526 147.708 302.398 146.124C303.269 144.54 304.378 143.352 305.724 142.56C307.07 141.768 308.179 141.689 309.05 142.243C309.922 142.798 310.318 143.906 310.318 145.57C310.318 147.233 309.842 148.817 308.971 150.48C308.1 152.143 306.991 153.331 305.645 154.123C304.457 154.915 303.348 154.994 302.477 154.361ZM301.289 111.276L310.238 106.128L308.734 136.303L302.794 139.788L301.289 111.276Z" fill="#FAFAFA"/>
<path opacity="0.2" d="M310.318 167.587C320.059 160.459 328.454 149.134 333.523 137.016C323.861 144.223 315.466 155.47 310.318 167.587Z" fill="black"/>
<path d="M372.569 208.93C369.163 208.93 366.708 206.633 365.124 203.623C375.262 191.189 382.073 174.636 382.073 160.142C382.073 149.371 378.351 141.847 372.252 138.362C370.826 137.57 365.283 134.323 363.936 133.531C357.996 130.126 349.759 130.601 340.731 135.749C322.515 146.282 307.704 172.102 307.704 193.406C307.704 204.098 311.426 211.622 317.525 215.186C318.95 215.978 324.494 219.226 325.841 220.018C331.781 223.502 340.018 223.027 349.126 217.8C351.502 216.454 353.799 214.79 356.016 212.969C362.115 217.8 369.638 212.494 372.569 210.038C372.886 209.642 372.886 208.85 372.569 208.93Z" fill="#E0E0E0"/>
<path d="M334.395 221.681C323.386 221.681 316.495 212.731 316.495 198.238C316.495 177.17 331.227 151.51 349.284 141.055C354.353 138.125 359.184 136.699 363.619 136.699C374.628 136.699 381.519 145.649 381.519 160.142C381.519 174.002 375.103 190.476 364.728 203.306L364.491 203.544L364.649 203.861C366.55 207.346 369.243 209.326 372.252 209.405C372.252 209.484 372.173 209.563 372.173 209.563C370.035 211.385 365.916 214.394 361.56 214.394C359.58 214.394 357.838 213.761 356.254 212.494L355.937 212.256L355.62 212.494C353.403 214.315 351.106 215.978 348.809 217.246C343.661 220.255 338.83 221.681 334.395 221.681Z" fill="#FAFAFA"/>
<path d="M363.619 136.224V137.254C374.311 137.254 380.964 146.045 380.964 160.222C380.964 173.923 374.549 190.318 364.253 202.99L363.857 203.544L364.174 204.178C365.916 207.425 368.292 209.405 371.064 209.88C368.847 211.623 365.203 213.999 361.481 213.999C359.659 213.999 357.996 213.444 356.491 212.256L355.858 211.702L355.224 212.256C353.007 214.078 350.71 215.662 348.492 217.008C343.503 219.859 338.751 221.364 334.395 221.364C323.703 221.364 317.05 212.573 317.05 198.396C317.05 177.487 331.623 151.985 349.522 141.689C354.511 138.838 359.263 137.333 363.619 137.333V136.224ZM363.619 136.224C359.184 136.224 354.274 137.65 348.967 140.659C330.751 151.193 315.941 177.012 315.941 198.317C315.941 213.523 323.465 222.315 334.315 222.315C338.751 222.315 343.661 220.889 348.967 217.879C351.343 216.533 353.64 214.87 355.858 213.048C357.679 214.474 359.58 215.028 361.481 215.028C365.995 215.028 370.351 211.86 372.411 210.118C372.807 209.801 372.886 209.009 372.49 209.009H372.411C369.084 209.009 366.629 206.633 365.045 203.703C375.183 191.268 381.994 174.715 381.994 160.222C381.994 145.015 374.549 136.224 363.619 136.224Z" fill="#3FA76F"/>
<path d="M347.304 182.873C348.096 180.972 349.126 178.755 350.631 176.141C351.66 174.24 352.452 172.735 352.927 171.547C353.403 170.359 353.64 169.251 353.64 168.142C353.64 166.558 353.165 165.607 352.215 165.211C351.264 164.815 349.997 165.132 348.413 166.003C346.908 166.875 345.562 168.063 344.374 169.567C343.186 171.072 342.235 172.815 341.443 174.795L335.583 173.607C336.929 170.122 338.751 166.954 341.047 164.103C343.344 161.251 346.037 158.955 349.205 157.133C352.927 154.995 355.858 154.361 358.075 155.153C360.293 155.945 361.402 158.242 361.402 161.964C361.402 163.707 361.164 165.37 360.768 166.954C360.372 168.538 359.818 169.963 359.184 171.231C358.551 172.498 357.759 174.003 356.729 175.824C355.541 177.883 354.67 179.626 354.115 180.893C353.561 182.16 353.323 183.507 353.323 184.853L346.037 189.051C346.195 186.754 346.591 184.695 347.304 182.873ZM346.591 203.227C345.72 202.594 345.245 201.485 345.245 199.822C345.245 198.159 345.641 196.575 346.512 194.991C347.383 193.407 348.492 192.219 349.839 191.427C351.185 190.635 352.294 190.555 353.165 191.11C354.036 191.664 354.432 192.773 354.432 194.436C354.432 196.099 353.957 197.683 353.086 199.347C352.215 201.01 351.106 202.198 349.759 202.99C348.571 203.782 347.463 203.861 346.591 203.227Z" fill="#455A64"/>
<path d="M180.034 146.758L143.602 167.825L158.016 192.456C158.333 193.169 158.808 193.644 159.362 194.04C161.105 194.991 171.322 200.931 171.876 201.247C173.618 202.277 176.074 201.564 176.786 199.267L192.468 153.965L180.034 146.758Z" fill="#3FA76F"/>
<path opacity="0.2" d="M180.034 146.758L143.602 167.825L158.016 192.456C158.333 193.169 158.808 193.644 159.362 194.04C161.105 194.991 171.322 200.931 171.876 201.247C173.618 202.277 176.074 201.564 176.786 199.267L192.468 153.965L180.034 146.758Z" fill="black"/>
<path d="M156.115 175.112L170.609 199.743C171.876 202.594 175.994 202.277 176.866 199.347L192.547 154.044L156.115 175.112Z" fill="#3FA76F"/>
<path d="M220.663 20.592L83.2512 99.8712C81.5088 100.901 80.0832 103.356 80.0832 105.336V200.693C80.0832 202.673 81.5088 205.128 83.2512 206.158L94.5768 212.494C96.3192 213.444 99.1704 213.444 100.913 212.494L238.325 133.214C240.067 132.185 241.493 129.73 241.493 127.75V32.3136C241.493 30.3336 240.067 27.8784 238.325 26.8488L226.999 20.5128C225.257 19.5624 222.406 19.5624 220.663 20.592Z" fill="#3FA76F"/>
<path opacity="0.3" d="M241.414 31.7592C241.176 30.1752 239.909 29.6208 238.325 30.492L100.913 109.771C100.042 110.246 99.2496 111.118 98.6952 112.147L81.1128 102.168C81.6672 101.218 82.4592 100.426 83.2512 99.9504L220.663 20.592C222.406 19.5624 225.257 19.5624 226.999 20.592L238.325 26.928C239.909 27.7992 241.176 29.8584 241.414 31.7592Z" fill="white"/>
<path d="M97.7448 210.989V115.632C97.7448 113.652 99.1704 111.197 100.913 110.167L238.325 30.8882C240.067 29.8586 241.493 30.7297 241.493 32.7097V128.067C241.493 130.047 240.067 132.502 238.325 133.531L100.913 212.811C99.1704 213.84 97.7448 212.969 97.7448 210.989Z" fill="#3FA76F"/>
<path opacity="0.2" d="M100.913 212.414C99.2496 213.365 96.1608 213.444 94.5768 212.414L83.2512 206.078C81.5088 205.128 80.0832 202.673 80.0832 200.693V105.336C80.0832 104.306 80.4792 103.118 81.1128 102.089L98.6952 112.147C98.1408 113.098 97.7448 114.206 97.7448 115.236V210.593C97.7448 212.494 99.0912 213.523 100.913 212.414Z" fill="black"/>
<path d="M136.315 134.64L134.969 133.848C133.939 133.214 132.593 133.214 131.484 133.848L123.089 138.679V127.274L138.612 118.325C140.117 117.453 140.988 115.869 140.988 114.127V107.712C140.988 105.969 140.038 104.385 138.612 103.514C137.107 102.643 135.286 102.643 133.781 103.514L112.318 115.949C109.704 117.453 108.12 120.225 108.12 123.235V182.793C108.12 184.536 109.07 186.12 110.496 186.991C112.001 187.862 113.822 187.862 115.327 186.991L120.713 183.902C122.218 183.031 123.089 181.447 123.089 179.705V156.341L136.315 148.737C137.345 148.104 138.058 146.995 138.058 145.728V137.649C138.058 136.382 137.345 135.273 136.315 134.64Z" fill="#E0E0E0"/>
<path opacity="0.1" d="M115.802 186.674L115.327 186.912C114.614 187.308 113.743 187.545 112.951 187.545C112.08 187.545 111.288 187.308 110.575 186.912C109.07 186.041 108.199 184.457 108.199 182.714V123.156C108.199 121.73 108.595 120.384 109.229 119.196L114.06 121.968C113.426 123.156 113.03 124.502 113.03 125.928V184.932C112.951 186.437 114.535 187.387 115.802 186.674Z" fill="black"/>
<path d="M123.089 127.274V144.302L136.236 136.699C137.028 136.224 137.978 136.778 137.978 137.729V145.728C137.978 146.916 137.345 148.104 136.236 148.658L123.01 156.261V179.625C123.01 181.368 122.059 182.952 120.634 183.823L115.723 186.674C114.456 187.387 112.793 186.516 112.793 185.011V126.007C112.793 122.997 114.377 120.225 116.99 118.721L138.295 106.445C139.483 105.811 140.909 106.603 140.909 107.949V114.127C140.909 115.869 139.958 117.453 138.533 118.245L123.089 127.274Z" fill="#FAFAFA"/>
<path d="M169.104 91.2385C168.708 89.8129 167.758 88.6249 166.49 87.9121C165.619 87.4369 164.59 87.1201 163.639 87.1201C162.689 87.1201 161.659 87.3577 160.788 87.9121L155.482 91.0009C154.056 91.7929 153.106 93.1393 152.789 94.7233L136.87 167.112C136.553 168.379 137.186 169.647 138.295 170.359L139.721 171.231C140.671 171.785 141.78 171.785 142.73 171.231L149.146 167.508C149.938 167.033 150.65 166.241 151.284 165.211C151.838 164.182 152.234 163.152 152.472 162.202L155.086 148.975L168.074 141.451L169.421 146.837C169.738 147.629 170.134 148.263 170.609 148.579C171.163 148.896 174.886 151.035 175.44 151.351C175.994 151.668 176.707 151.589 177.578 151.035L185.419 146.52L169.104 91.2385ZM158.57 130.759L161.342 116.424C161.422 116.187 161.422 115.949 161.501 115.632L164.431 127.354L158.57 130.759Z" fill="#E0E0E0"/>
<path opacity="0.1" d="M175.282 151.272C174.569 150.876 171.005 148.817 170.53 148.5C169.975 148.183 169.579 147.629 169.342 146.758L167.995 141.372L171.559 139.313L174.094 149.53C174.41 150.401 174.806 150.955 175.282 151.272Z" fill="black"/>
<path opacity="0.1" d="M169.262 130.126L164.431 127.354L161.501 115.632C161.501 115.632 161.501 115.632 161.501 115.553C161.738 114.444 161.976 113.098 162.293 111.672C162.61 109.851 162.926 107.95 163.243 105.891C163.56 107.554 163.956 109.059 164.273 110.484C164.59 111.91 164.906 113.019 165.223 114.048L169.262 130.126Z" fill="black"/>
<path opacity="0.1" d="M141.78 169.488C141.622 170.36 142.414 171.072 143.206 170.835V170.914L142.73 171.152C141.78 171.706 140.671 171.706 139.721 171.152L138.295 170.28C137.186 169.647 136.632 168.38 136.87 167.033L152.789 94.7236C152.947 94.09 153.185 93.3772 153.581 92.8228L158.412 95.5948C158.016 96.1492 157.778 96.7828 157.62 97.4956L141.78 169.488Z" fill="black"/>
<path d="M185.34 146.52L177.499 151.035C176.628 151.51 175.915 151.668 175.361 151.351C174.806 151.035 174.41 150.48 174.173 149.609L171.559 139.392L155.006 148.975L152.393 162.202C152.155 163.152 151.759 164.182 151.205 165.211C150.65 166.241 149.938 166.954 149.066 167.429L143.364 170.676C142.493 171.151 141.463 170.439 141.701 169.488L157.462 97.4954C157.778 95.9114 158.808 94.565 160.154 93.773L165.302 90.8426C166.886 89.9714 168.866 90.7634 169.342 92.5058L185.34 146.52ZM169.262 130.126L165.223 114.048C164.906 113.019 164.59 111.831 164.273 110.484C163.956 109.059 163.56 107.554 163.243 105.97C162.926 108.029 162.61 109.93 162.293 111.751C161.976 113.573 161.659 115.078 161.342 116.424L157.303 137.016L169.262 130.126Z" fill="#FAFAFA"/>
<path d="M222.881 118.8C224.227 116.503 225.415 114.048 226.524 111.434C227.633 108.821 228.504 106.128 229.217 103.356C229.93 100.584 230.484 97.812 230.88 94.8816C231.276 92.0304 231.434 89.1 231.434 86.2488C231.434 81.4176 230.88 77.22 229.771 73.656C228.662 70.092 227.158 67.3992 225.178 65.4192C224.465 64.7064 223.752 64.152 222.881 63.6768C222.089 63.2016 218.921 61.38 218.129 60.9048C216.624 60.0336 215.04 59.5584 213.218 59.4792C210.446 59.3208 207.358 60.192 203.952 62.172C200.546 64.152 197.458 66.7656 194.686 70.1712C191.914 73.4976 189.538 77.2992 187.478 81.576C185.498 85.7736 183.914 90.288 182.885 95.1192C181.776 99.9504 181.222 104.782 181.222 109.613C181.222 114.444 181.776 118.642 182.885 122.206C183.994 125.77 185.498 128.542 187.478 130.442C188.191 131.155 188.983 131.71 189.775 132.185C190.567 132.66 193.656 134.482 194.448 134.878C195.953 135.749 197.616 136.224 199.438 136.303C202.21 136.462 205.298 135.511 208.704 133.61C210.13 132.739 211.555 131.868 212.822 130.759L214.802 132.977C215.119 133.294 215.436 133.531 215.674 133.69C216.228 134.006 220.188 136.303 220.505 136.462C221.059 136.778 221.614 136.937 222.247 136.858C223.198 136.778 224.306 136.382 225.494 135.749L233.81 130.918L222.881 118.8ZM215.436 98.9208C214.882 101.93 214.09 104.623 213.06 107.078C212.03 109.534 210.763 111.672 209.179 113.494C207.674 115.315 205.932 116.82 204.031 117.929C202.21 118.958 200.626 119.513 199.2 119.513C198.408 118.325 197.854 116.82 197.378 114.919C196.824 112.543 196.507 109.771 196.507 106.366C196.507 103.039 196.745 99.8712 197.378 96.9408C197.933 93.9312 198.725 91.2384 199.754 88.7832C200.784 86.328 202.051 84.1896 203.635 82.2888C205.14 80.388 206.882 78.9624 208.862 77.7744C210.605 76.7448 212.189 76.2696 213.614 76.2696C214.406 77.4576 215.04 78.9624 215.436 80.8632C215.99 83.2392 216.307 86.0112 216.307 89.3376C216.307 92.8224 215.99 95.9904 215.436 98.9208Z" fill="#E0E0E0"/>
<path opacity="0.1" d="M194.369 134.877C193.339 134.323 190.567 132.66 189.854 132.264C189.062 131.789 188.27 131.234 187.558 130.521C185.578 128.621 183.994 125.849 182.964 122.285C181.855 118.721 181.301 114.523 181.301 109.692C181.301 104.861 181.855 100.029 182.964 95.1983C183.994 90.7631 185.34 86.5655 187.162 82.6055L191.993 85.3775C190.25 89.3375 188.825 93.5351 187.795 97.9703C186.686 102.801 186.132 107.633 186.132 112.464C186.132 117.295 186.686 121.493 187.795 125.057C188.904 128.621 190.409 131.393 192.389 133.293C193.022 133.927 193.656 134.402 194.369 134.877Z" fill="black"/>
<path opacity="0.1" d="M217.891 78.4082C216.862 77.141 215.594 76.5074 214.09 76.4282C213.931 76.4282 213.773 76.4282 213.694 76.4282C214.486 77.6162 215.119 79.121 215.515 81.0218C216.07 83.3978 216.386 86.1698 216.386 89.4962C216.386 92.8226 216.07 95.9906 215.515 99.0002C214.961 102.01 214.169 104.703 213.139 107.158C212.11 109.613 210.842 111.751 209.258 113.573C207.754 115.395 206.011 116.899 204.11 118.008C202.289 119.038 200.705 119.592 199.279 119.592C199.438 119.909 199.675 120.147 199.834 120.384C200.863 121.651 202.13 122.285 203.714 122.364C205.219 122.443 206.962 121.968 208.942 120.78C210.842 119.671 212.585 118.167 214.09 116.345C215.594 114.523 216.862 112.385 217.891 109.93C218.921 107.475 219.713 104.782 220.267 101.772C220.822 98.7626 221.138 95.5946 221.138 92.2682C221.138 88.9418 220.822 86.0906 220.267 83.7938C219.713 81.4178 218.921 79.5962 217.891 78.4082Z" fill="black"/>
<path opacity="0.1" d="M214.327 129.65C213.852 130.046 213.456 130.442 212.981 130.838L214.961 133.056C215.278 133.373 215.594 133.61 215.832 133.769C216.386 134.086 220.109 136.224 220.584 136.541C220.267 136.382 220.03 136.145 219.713 135.828L214.327 129.65Z" fill="black"/>
<path d="M233.969 130.997L225.653 135.828C224.465 136.541 223.356 136.937 222.406 136.937C221.455 137.016 220.584 136.62 219.792 135.828L214.406 129.571C212.743 131.155 210.922 132.502 208.942 133.61C205.536 135.59 202.447 136.462 199.675 136.303C196.903 136.145 194.527 135.115 192.468 133.214C190.488 131.234 188.983 128.542 187.874 124.978C186.766 121.414 186.211 117.216 186.211 112.385C186.211 107.554 186.766 102.722 187.874 97.8912C188.983 93.06 190.488 88.5456 192.468 84.348C194.448 80.1504 196.824 76.3488 199.675 72.9432C202.447 69.6168 205.536 66.924 208.942 64.944C212.347 62.964 215.436 62.0928 218.208 62.2512C220.98 62.4096 223.356 63.4392 225.336 65.4192C227.316 67.32 228.821 70.092 229.93 73.656C231.038 77.22 231.593 81.4176 231.593 86.2488C231.593 89.1 231.434 92.0304 231.038 94.8816C230.642 97.7328 230.088 100.584 229.375 103.356C228.662 106.128 227.712 108.821 226.682 111.434C225.653 114.048 224.386 116.503 223.039 118.8L233.969 130.997ZM196.507 106.445C196.507 109.771 196.824 112.622 197.378 114.998C197.933 117.374 198.725 119.117 199.754 120.384C200.784 121.651 202.051 122.285 203.635 122.364C205.14 122.443 206.882 121.968 208.862 120.78C210.763 119.671 212.506 118.166 214.01 116.345C215.515 114.523 216.782 112.385 217.891 109.93C218.921 107.474 219.713 104.782 220.267 101.772C220.822 98.7624 221.138 95.5944 221.138 92.268C221.138 88.9416 220.822 86.0904 220.267 83.7936C219.713 81.4968 218.921 79.6752 217.891 78.408C216.862 77.1408 215.594 76.5072 214.01 76.3488C212.506 76.2696 210.763 76.7448 208.862 77.8536C206.882 78.9624 205.14 80.4672 203.635 82.368C202.13 84.2688 200.784 86.4072 199.754 88.8624C198.725 91.3176 197.933 94.0104 197.378 97.02C196.824 99.9504 196.507 103.118 196.507 106.445Z" fill="#FAFAFA"/>
</svg>
