<svg width="118" height="16" viewBox="0 0 118 16" fill="none" xmlns="http://www.w3.org/2000/svg">
<path d="M12.8132 3.2992H8.1988V15H4.9028V3.2992H0.309V0.579999H12.8132V3.2992ZM18.4035 3.7524C20.1202 3.7524 21.4386 4.1644 22.3587 4.9884C23.2789 5.79867 23.7389 7.0278 23.7389 8.6758V15H20.7313V13.6198C20.1271 14.6498 19.0009 15.1648 17.3529 15.1648C16.5015 15.1648 15.7599 15.0206 15.1281 14.7322C14.5101 14.4438 14.0363 14.0455 13.7067 13.5374C13.3771 13.0293 13.2123 12.4525 13.2123 11.807C13.2123 10.777 13.5969 9.96673 14.3659 9.3762C15.1487 8.78567 16.3504 8.4904 17.9709 8.4904H20.5253C20.5253 7.79 20.3125 7.2544 19.8867 6.8836C19.461 6.49907 18.8224 6.3068 17.9709 6.3068C17.3804 6.3068 16.7967 6.40293 16.2199 6.5952C15.6569 6.77373 15.1762 7.02093 14.7779 7.3368L13.6243 5.0914C14.2286 4.66567 14.9496 4.33607 15.7873 4.1026C16.6388 3.86913 17.5109 3.7524 18.4035 3.7524ZM18.1563 13.0018C18.7057 13.0018 19.1932 12.8782 19.6189 12.631C20.0447 12.3701 20.3468 11.9924 20.5253 11.498V10.365H18.3211C17.0027 10.365 16.3435 10.7976 16.3435 11.6628C16.3435 12.0748 16.5015 12.4044 16.8173 12.6516C17.1469 12.8851 17.5933 13.0018 18.1563 13.0018ZM31.4127 10.7976H29.7441V15H26.5305V3.9172H29.7441V8.2226H31.4745L34.4821 3.9172H37.9017L34.0289 9.232L38.1695 15H34.3791L31.4127 10.7976ZM44.6791 15.1648C43.4981 15.1648 42.4337 14.9245 41.4861 14.4438C40.5523 13.9494 39.8175 13.2696 39.2819 12.4044C38.7601 11.5392 38.4991 10.5573 38.4991 9.4586C38.4991 8.35993 38.7601 7.378 39.2819 6.5128C39.8175 5.6476 40.5523 4.97467 41.4861 4.494C42.4337 3.9996 43.4981 3.7524 44.6791 3.7524C45.8465 3.7524 46.8627 3.9996 47.7279 4.494C48.6069 4.97467 49.2455 5.6682 49.6437 6.5746L47.1511 7.9136C46.5743 6.89733 45.7435 6.3892 44.6585 6.3892C43.8208 6.3892 43.1273 6.66387 42.5779 7.2132C42.0286 7.76253 41.7539 8.511 41.7539 9.4586C41.7539 10.4062 42.0286 11.1547 42.5779 11.704C43.1273 12.2533 43.8208 12.528 44.6585 12.528C45.7572 12.528 46.5881 12.0199 47.1511 11.0036L49.6437 12.3632C49.2455 13.2421 48.6069 13.9288 47.7279 14.4232C46.8627 14.9176 45.8465 15.1648 44.6791 15.1648ZM51.5966 3.9172H54.7896V10.5092L60.1868 3.9172H63.1326V15H59.9396V8.408L54.563 15H51.5966V3.9172Z" fill="white"/>
<path d="M79.3234 0.579999V15H76.0274V3.2992H71.0834L70.9804 6.3068C70.9117 8.35307 70.7469 10.0148 70.486 11.292C70.225 12.5555 69.7856 13.5305 69.1676 14.2172C68.5633 14.8901 67.7118 15.2266 66.6132 15.2266C66.16 15.2266 65.6106 15.1511 64.9652 15L65.1712 12.1778C65.3497 12.2327 65.5488 12.2602 65.7686 12.2602C66.5651 12.2602 67.1213 11.7933 67.4372 10.8594C67.753 9.9118 67.9522 8.43547 68.0346 6.4304L68.2406 0.579999H79.3234ZM87.8688 15.1648C86.7015 15.1648 85.6509 14.9245 84.717 14.4438C83.7969 13.9494 83.0759 13.2696 82.554 12.4044C82.0322 11.5392 81.7712 10.5573 81.7712 9.4586C81.7712 8.35993 82.0322 7.378 82.554 6.5128C83.0759 5.6476 83.7969 4.97467 84.717 4.494C85.6509 3.9996 86.7015 3.7524 87.8688 3.7524C89.0362 3.7524 90.0799 3.9996 91 4.494C91.9202 4.97467 92.6412 5.6476 93.163 6.5128C93.6849 7.378 93.9458 8.35993 93.9458 9.4586C93.9458 10.5573 93.6849 11.5392 93.163 12.4044C92.6412 13.2696 91.9202 13.9494 91 14.4438C90.0799 14.9245 89.0362 15.1648 87.8688 15.1648ZM87.8688 12.528C88.6928 12.528 89.3658 12.2533 89.8876 11.704C90.4232 11.1409 90.691 10.3925 90.691 9.4586C90.691 8.52473 90.4232 7.78313 89.8876 7.2338C89.3658 6.67073 88.6928 6.3892 87.8688 6.3892C87.0448 6.3892 86.365 6.67073 85.8294 7.2338C85.2938 7.78313 85.026 8.52473 85.026 9.4586C85.026 10.3925 85.2938 11.1409 85.8294 11.704C86.365 12.2533 87.0448 12.528 87.8688 12.528ZM105.035 6.554H99.3491V15H96.1561V3.9172H105.035V6.554ZM111.466 15.1648C110.299 15.1648 109.248 14.9245 108.314 14.4438C107.394 13.9494 106.673 13.2696 106.151 12.4044C105.63 11.5392 105.369 10.5573 105.369 9.4586C105.369 8.35993 105.63 7.378 106.151 6.5128C106.673 5.6476 107.394 4.97467 108.314 4.494C109.248 3.9996 110.299 3.7524 111.466 3.7524C112.634 3.7524 113.677 3.9996 114.597 4.494C115.518 4.97467 116.239 5.6476 116.76 6.5128C117.282 7.378 117.543 8.35993 117.543 9.4586C117.543 10.5573 117.282 11.5392 116.76 12.4044C116.239 13.2696 115.518 13.9494 114.597 14.4438C113.677 14.9245 112.634 15.1648 111.466 15.1648ZM111.466 12.528C112.29 12.528 112.963 12.2533 113.485 11.704C114.021 11.1409 114.288 10.3925 114.288 9.4586C114.288 8.52473 114.021 7.78313 113.485 7.2338C112.963 6.67073 112.29 6.3892 111.466 6.3892C110.642 6.3892 109.962 6.67073 109.427 7.2338C108.891 7.78313 108.623 8.52473 108.623 9.4586C108.623 10.3925 108.891 11.1409 109.427 11.704C109.962 12.2533 110.642 12.528 111.466 12.528Z" fill="#1C1C1C"/>
</svg>
