<svg width="32" height="32" viewBox="0 0 32 32" fill="none" xmlns="http://www.w3.org/2000/svg">
<path fill-rule="evenodd" clip-rule="evenodd" d="M30 16C30 15.7348 29.8947 15.4804 29.7071 15.2929C29.5196 15.1054 29.2652 15 29 15H5.41402L11.708 8.708C11.801 8.61502 11.8747 8.50464 11.9251 8.38316C11.9754 8.26169 12.0013 8.13148 12.0013 8C12.0013 7.86851 11.9754 7.73831 11.9251 7.61683C11.8747 7.49535 11.801 7.38497 11.708 7.292C11.615 7.19902 11.5047 7.12527 11.3832 7.07495C11.2617 7.02463 11.1315 6.99873 11 6.99873C10.8685 6.99873 10.7383 7.02463 10.6168 7.07495C10.4954 7.12527 10.385 7.19902 10.292 7.292L2.29202 15.292C2.19889 15.3849 2.12501 15.4952 2.07459 15.6167C2.02418 15.7382 1.99823 15.8685 1.99823 16C1.99823 16.1315 2.02418 16.2618 2.07459 16.3833C2.12501 16.5048 2.19889 16.6151 2.29202 16.708L10.292 24.708C10.385 24.801 10.4954 24.8747 10.6168 24.925C10.7383 24.9754 10.8685 25.0013 11 25.0013C11.1315 25.0013 11.2617 24.9754 11.3832 24.925C11.5047 24.8747 11.615 24.801 11.708 24.708C11.801 24.615 11.8747 24.5046 11.9251 24.3832C11.9754 24.2617 12.0013 24.1315 12.0013 24C12.0013 23.8685 11.9754 23.7383 11.9251 23.6168C11.8747 23.4953 11.801 23.385 11.708 23.292L5.41402 17H29C29.2652 17 29.5196 16.8946 29.7071 16.7071C29.8947 16.5196 30 16.2652 30 16Z" fill="#34B16E"/>
</svg>
