<svg width="20" height="20" viewBox="0 0 20 20" fill="none" xmlns="http://www.w3.org/2000/svg">
<path fill-rule="evenodd" clip-rule="evenodd" d="M3.91322 16.0867C4.02853 16.202 4.18491 16.2668 4.34797 16.2668C4.51103 16.2668 4.66741 16.202 4.78271 16.0867L15.0365 5.83292L15.0357 11.3046C15.0357 11.3854 15.0516 11.4655 15.0825 11.5402C15.1135 11.6148 15.1588 11.6827 15.216 11.7399C15.2731 11.797 15.341 11.8424 15.4157 11.8733C15.4904 11.9042 15.5704 11.9202 15.6513 11.9202C15.7321 11.9202 15.8121 11.9043 15.8868 11.8733C15.9615 11.8424 16.0294 11.797 16.0865 11.7399C16.1437 11.6827 16.1891 11.6148 16.22 11.5402C16.2509 11.4655 16.2668 11.3854 16.2668 11.3046L16.2669 4.34871C16.267 4.26784 16.2511 4.18774 16.2202 4.11301C16.1893 4.03828 16.144 3.97037 16.0868 3.91319C16.0296 3.85601 15.9617 3.81067 15.887 3.77977C15.8122 3.74887 15.7321 3.73301 15.6513 3.73311L8.69539 3.73311C8.61455 3.73311 8.5345 3.74903 8.45981 3.77997C8.38512 3.81091 8.31726 3.85625 8.2601 3.91342C8.20293 3.97058 8.15759 4.03844 8.12665 4.11313C8.09571 4.18782 8.07979 4.26787 8.07979 4.34871C8.07979 4.42955 8.09571 4.5096 8.12665 4.58428C8.15759 4.65897 8.20293 4.72683 8.26009 4.784C8.31726 4.84116 8.38512 4.88651 8.45981 4.91744C8.5345 4.94838 8.61454 4.9643 8.69539 4.9643L14.167 4.96343L3.91323 15.2173C3.79793 15.3326 3.73315 15.4889 3.73315 15.652C3.73315 15.8151 3.79792 15.9714 3.91322 16.0867Z" fill="#38BE76"/>
</svg>
