<svg width="24" height="24" viewBox="0 0 24 24" fill="none" xmlns="http://www.w3.org/2000/svg">
<path d="M21.5 3.99999H18.8334V5.99999C18.8334 6.19259 18.7954 6.38331 18.7217 6.56125C18.648 6.7392 18.54 6.90088 18.4038 7.03708C18.2676 7.17327 18.1059 7.2813 17.928 7.35501C17.75 7.42872 17.5593 7.46665 17.3667 7.46665C17.1741 7.46665 16.9834 7.42872 16.8054 7.35501C16.6275 7.2813 16.4658 7.17327 16.3296 7.03708C16.1934 6.90088 16.0854 6.7392 16.0117 6.56125C15.938 6.38331 15.9 6.19259 15.9 5.99999V3.99999H8.13336V5.99999C8.13336 6.38897 7.97884 6.76202 7.70379 7.03708C7.42873 7.31213 7.05568 7.46665 6.6667 7.46665C6.27771 7.46665 5.90466 7.31213 5.62961 7.03708C5.35455 6.76202 5.20003 6.38897 5.20003 5.99999V3.99999H2.53336C2.37471 3.99818 2.21731 4.02821 2.07046 4.08829C1.92362 4.14838 1.79032 4.2373 1.67844 4.3498C1.56656 4.4623 1.47838 4.5961 1.4191 4.74327C1.35983 4.89045 1.33068 5.04801 1.33336 5.20665V20.1267C1.33071 20.2825 1.35879 20.4373 1.41599 20.5823C1.47319 20.7273 1.5584 20.8596 1.66674 20.9717C1.77508 21.0837 1.90443 21.1733 2.04741 21.2354C2.19038 21.2974 2.34419 21.3307 2.50003 21.3333H21.5C21.6559 21.3307 21.8097 21.2974 21.9527 21.2354C22.0956 21.1733 22.225 21.0837 22.3333 20.9717C22.4417 20.8596 22.5269 20.7273 22.5841 20.5823C22.6413 20.4373 22.6693 20.2825 22.6667 20.1267V5.20665C22.6693 5.05081 22.6413 4.89597 22.5841 4.75099C22.5269 4.606 22.4417 4.4737 22.3333 4.36165C22.225 4.24959 22.0956 4.15998 21.9527 4.09792C21.8097 4.03587 21.6559 4.00259 21.5 3.99999ZM6.6667 17.3333H5.33336V16H6.6667V17.3333ZM6.6667 14H5.33336V12.6667H6.6667V14ZM6.6667 10.6667H5.33336V9.33332H6.6667V10.6667ZM10.6667 17.3333H9.33336V16H10.6667V17.3333ZM10.6667 14H9.33336V12.6667H10.6667V14ZM10.6667 10.6667H9.33336V9.33332H10.6667V10.6667ZM14.6667 17.3333H13.3334V16H14.6667V17.3333ZM14.6667 14H13.3334V12.6667H14.6667V14ZM14.6667 10.6667H13.3334V9.33332H14.6667V10.6667ZM18.6667 17.3333H17.3334V16H18.6667V17.3333ZM18.6667 14H17.3334V12.6667H18.6667V14ZM18.6667 10.6667H17.3334V9.33332H18.6667V10.6667Z" fill="#38BE76"/>
<path d="M6.66667 6.66668C6.84348 6.66668 7.01305 6.59644 7.13807 6.47141C7.2631 6.34639 7.33333 6.17682 7.33333 6.00001V2.00001C7.33333 1.8232 7.2631 1.65363 7.13807 1.52861C7.01305 1.40358 6.84348 1.33334 6.66667 1.33334C6.48986 1.33334 6.32029 1.40358 6.19526 1.52861C6.07024 1.65363 6 1.8232 6 2.00001V6.00001C6 6.17682 6.07024 6.34639 6.19526 6.47141C6.32029 6.59644 6.48986 6.66668 6.66667 6.66668Z" fill="#38BE76"/>
<path d="M17.3334 6.66668C17.5102 6.66668 17.6797 6.59644 17.8048 6.47141C17.9298 6.34639 18 6.17682 18 6.00001V2.00001C18 1.8232 17.9298 1.65363 17.8048 1.52861C17.6797 1.40358 17.5102 1.33334 17.3334 1.33334C17.1565 1.33334 16.987 1.40358 16.8619 1.52861C16.7369 1.65363 16.6667 1.8232 16.6667 2.00001V6.00001C16.6667 6.17682 16.7369 6.34639 16.8619 6.47141C16.987 6.59644 17.1565 6.66668 17.3334 6.66668Z" fill="#38BE76"/>
</svg>
