<svg width="48" height="48" viewBox="0 0 48 48" fill="none" xmlns="http://www.w3.org/2000/svg">
<path d="M32.121 43.0919C32.6834 42.5293 32.9994 41.7663 32.9994 40.9709C32.9994 40.1754 32.6834 39.4124 32.121 38.8499L17.271 23.9999L32.121 9.14986C32.6675 8.58405 32.9699 7.82624 32.9631 7.03965C32.9562 6.25306 32.6407 5.50062 32.0845 4.9444C31.5283 4.38817 30.7758 4.07267 29.9892 4.06583C29.2026 4.059 28.4448 4.36138 27.879 4.90786L10.908 21.8789C10.3456 22.4414 10.0297 23.2044 10.0297 23.9999C10.0297 24.7953 10.3456 25.5583 10.908 26.1209L27.879 43.0919C28.4416 43.6543 29.2045 43.9702 30 43.9702C30.7955 43.9702 31.5584 43.6543 32.121 43.0919Z" fill="#A6A6A6"/>
</svg>
