<svg width="48" height="48" viewBox="0 0 48 48" fill="none" xmlns="http://www.w3.org/2000/svg">
<path d="M15.879 43.0919C15.3166 42.5293 15.0006 41.7663 15.0006 40.9709C15.0006 40.1754 15.3166 39.4124 15.879 38.8499L30.729 23.9999L15.879 9.14986C15.3325 8.58405 15.0301 7.82624 15.0369 7.03965C15.0438 6.25306 15.3593 5.50062 15.9155 4.9444C16.4717 4.38817 17.2242 4.07267 18.0108 4.06583C18.7974 4.059 19.5552 4.36138 20.121 4.90786L37.092 21.8789C37.6544 22.4414 37.9703 23.2044 37.9703 23.9999C37.9703 24.7953 37.6544 25.5583 37.092 26.1209L20.121 43.0919C19.5584 43.6543 18.7955 43.9702 18 43.9702C17.2045 43.9702 16.4416 43.6543 15.879 43.0919Z" fill="#38BE76"/>
</svg>
