<svg width="76" height="76" viewBox="0 0 76 76" fill="none" xmlns="http://www.w3.org/2000/svg">
<path d="M70.0933 29.9415C71.4695 28.6001 71.9553 26.6313 71.3615 24.8036C70.7677 22.9759 69.2174 21.6689 67.3156 21.3927L50.6861 18.9763C50.3597 18.9289 50.0775 18.7239 49.9315 18.428L42.4946 3.35932C41.6442 1.63596 39.922 0.56543 38.0002 0.56543C36.0784 0.56543 34.3562 1.63596 33.5058 3.35932L26.069 18.4281C25.9228 18.7239 25.6407 18.9289 25.3142 18.9764L8.68501 21.3927C6.78322 21.6689 5.23309 22.9759 4.63905 24.8036C4.045 26.6313 4.53098 28.6001 5.9073 29.9415L17.9404 41.6709C18.1765 41.9013 18.2845 42.233 18.2286 42.5582L15.388 59.1203C15.0632 61.0145 15.8271 62.8927 17.3818 64.0223C18.9365 65.1522 20.9594 65.2981 22.6602 64.4041L37.5338 56.5845C37.826 56.4309 38.1746 56.4309 38.4669 56.5845L53.3406 64.4041C54.0805 64.793 54.881 64.9852 55.6776 64.9851C56.7123 64.9851 57.7403 64.6609 58.6186 64.0222C60.1734 62.8924 60.9374 61.0141 60.6124 59.1202L57.7718 42.5581C57.7161 42.2329 57.8239 41.9011 58.0601 41.6707L70.0933 29.9415ZM53.8202 43.2362L56.6609 59.7985C56.7559 60.3528 56.4137 60.6688 56.2622 60.7788C56.1105 60.8886 55.7041 61.1168 55.2065 60.8549L40.3328 53.0354C39.6026 52.6517 38.8016 52.4596 38.0005 52.4596C37.1994 52.4596 36.3983 52.6517 35.6683 53.0353L20.7947 60.8546C20.2968 61.1163 19.8906 60.8885 19.739 60.7785C19.5874 60.6685 19.2451 60.3525 19.3403 59.7982L22.1809 43.2362C22.4599 41.61 21.9212 39.9517 20.7395 38.8L8.70638 27.0706C8.30367 26.6778 8.39481 26.2211 8.45285 26.0429C8.51059 25.8647 8.70549 25.4415 9.26198 25.3607L25.891 22.9443C27.5237 22.7071 28.9346 21.6823 29.6649 20.2025L37.1017 5.13374C37.3507 4.6295 37.8132 4.57502 38.0007 4.57502C38.1878 4.57502 38.6504 4.62935 38.8995 5.13374V5.13389L46.3363 20.2027C47.0665 21.6824 48.4772 22.7073 50.1099 22.9445L66.7392 25.3609C67.2957 25.4416 67.4904 25.8648 67.5483 26.0431C67.6062 26.2214 67.6975 26.6783 67.2947 27.0707L55.2616 38.8001C54.08 39.9517 53.5413 41.61 53.8202 43.2362Z" fill="#38BE76"/>
<path d="M61.4209 3.35831C60.525 2.70756 59.2714 2.90617 58.6207 3.80185L56.4925 6.73081C55.8418 7.62649 56.0402 8.88034 56.936 9.53109C57.2921 9.78952 57.7044 9.91406 58.1129 9.91406C58.7329 9.91406 59.3441 9.62742 59.7363 9.0877L61.8645 6.15874C62.5152 5.26292 62.3168 4.00906 61.4209 3.35831Z" fill="#38BE76"/>
<path d="M19.4987 6.71888L17.3706 3.78991C16.72 2.89454 15.4662 2.69593 14.5703 3.34638C13.6746 3.99713 13.476 5.25098 14.1267 6.14666L16.2549 9.07562C16.6472 9.61579 17.2585 9.90227 17.8787 9.90227C18.2873 9.90227 18.6997 9.77773 19.0553 9.51915C19.951 8.86855 20.1496 7.6147 19.4987 6.71888Z" fill="#38BE76"/>
<path d="M7.35534 45.5449C7.0132 44.4921 5.88225 43.9157 4.82909 44.2578L1.38578 45.3768C0.332619 45.7189 -0.243467 46.8501 0.098681 47.903C0.373884 48.7504 1.15986 49.289 2.00492 49.289C2.2102 49.289 2.41906 49.2571 2.62494 49.1901L6.06824 48.0712C7.12126 47.729 7.69749 46.5981 7.35534 45.5449Z" fill="#38BE76"/>
<path d="M38.0008 67.804C36.8936 67.804 35.996 68.7016 35.996 69.8087V73.4294C35.996 74.5366 36.8936 75.4342 38.0008 75.4342C39.108 75.4342 40.0056 74.5366 40.0056 73.4294V69.8087C40.0056 68.7014 39.1081 67.804 38.0008 67.804Z" fill="#38BE76"/>
<path d="M74.6141 45.3793L71.1708 44.2604C70.1181 43.9186 68.9867 44.4945 68.6446 45.5477C68.3024 46.6008 68.8785 47.7318 69.9317 48.0739L73.375 49.1928C73.5809 49.2596 73.7896 49.2914 73.9949 49.2914C74.8401 49.2914 75.626 48.7527 75.9012 47.9055C76.2434 46.8524 75.6672 45.7215 74.6141 45.3793Z" fill="#38BE76"/>
</svg>
