<svg width="60" height="60" viewBox="0 0 60 60" fill="none" xmlns="http://www.w3.org/2000/svg">
<path d="M33.7657 15.0625H24.3516C23.3808 15.0625 22.5938 15.8495 22.5938 16.8203V30.125H20.586C19.6152 30.125 18.8282 30.912 18.8282 31.8828C18.8282 32.8536 19.6152 33.6406 20.586 33.6406H22.5938V37.6562H20.586C19.6152 37.6562 18.8282 38.4433 18.8282 39.4141C18.8282 40.3848 19.6152 41.1719 20.586 41.1719H22.5938V45.0625C22.5938 46.0333 23.3808 46.8203 24.3516 46.8203C25.3224 46.8203 26.1094 46.0333 26.1094 45.0625V41.1719H33.7657C34.7365 41.1719 35.5235 40.3848 35.5235 39.4141C35.5235 38.4433 34.7365 37.6562 33.7657 37.6562H26.1094V33.6406H33.7657C38.8877 33.6406 43.0548 29.4735 43.0548 24.3515C43.0547 19.1029 38.7793 15.0625 33.7657 15.0625ZM33.7657 30.125H26.1094V18.5781H33.7657C36.93 18.5781 39.5392 21.1305 39.5392 24.3516C39.5391 27.5351 36.9492 30.125 33.7657 30.125Z" fill="#38BE76"/>
<path d="M30 0C13.4579 0 0 13.4579 0 30C0 46.5421 13.4579 60 30 60C46.5421 60 60 46.5421 60 30C60 13.4579 46.5421 0 30 0ZM30 56.4844C15.3964 56.4844 3.51562 44.6036 3.51562 30C3.51562 15.3964 15.3964 3.51562 30 3.51562C44.6036 3.51562 56.4844 15.3964 56.4844 30C56.4844 44.6036 44.6036 56.4844 30 56.4844Z" fill="#38BE76"/>
</svg>
