<svg width="60" height="60" viewBox="0 0 60 60" fill="none" xmlns="http://www.w3.org/2000/svg">
<path d="M50.5142 16.5909V16.5999L50.515 16.6089C50.5215 16.6809 50.5272 17.0326 50.5313 17.6191C50.5354 18.1987 50.538 18.9947 50.5394 19.9423C50.5422 21.8373 50.5403 24.3377 50.5366 26.9241C50.5329 29.4658 50.5274 32.0906 50.5228 34.3055C50.518 36.598 50.5142 38.4512 50.5142 39.3182C50.5142 42.268 48.8634 45.2484 45.4917 48.2599C42.1344 51.2584 37.0934 54.2666 30.3572 57.2809C23.6209 54.2595 18.5798 51.2478 15.2225 48.2493C11.8506 45.2377 10.2 42.2608 10.2 39.3182V16.5909C10.2 16.038 10.269 15.643 10.4123 15.3232C10.5544 15.0057 10.7774 14.7453 11.1149 14.4741C11.4562 14.1997 11.9037 13.9225 12.4896 13.5657C12.5307 13.5407 12.5724 13.5153 12.6148 13.4895C13.1731 13.1498 13.8428 12.7423 14.6351 12.2116C14.8013 12.1003 16.8011 10.9703 19.7329 9.868C22.6626 8.76649 26.504 7.7 30.3571 7.7C37.0891 7.7 42.7163 9.95905 46.0791 12.2116C46.8713 12.7423 47.541 13.1498 48.0994 13.4895C48.1417 13.5153 48.1835 13.5407 48.2246 13.5657C48.8105 13.9225 49.258 14.1997 49.5993 14.4741C49.9368 14.7453 50.1597 15.0057 50.3019 15.3232C50.4451 15.643 50.5142 16.038 50.5142 16.5909ZM46.412 17.4295L46.4116 17.319L46.3179 17.2605C46.2205 17.1997 46.1161 17.1347 46.0069 17.0666C45.2749 16.6102 44.3249 16.0181 43.7923 15.6613C40.4179 13.4009 35.5061 11.8455 30.3571 11.8455C27.8839 11.8455 25.0511 12.4488 22.5812 13.2233C20.1137 13.9972 17.9845 14.9495 16.9218 15.6613C16.3894 16.018 15.4395 16.6101 14.7074 17.0665C14.6062 17.1296 14.5091 17.1901 14.4179 17.247L14.3238 17.3057V17.4167V39.3182C14.3238 41.1252 15.6453 43.2043 18.2639 45.4456C20.8925 47.6953 24.869 50.1438 30.2741 52.6855L30.3591 52.7255L30.4441 52.6856C35.8486 50.1495 39.8241 47.7043 42.4519 45.4547C45.0698 43.2135 46.3904 41.1316 46.3904 39.3182C46.3904 38.795 46.3917 37.9182 46.3945 36.4883L46.4037 32.0491C46.4066 30.6129 46.4089 29.3805 46.4108 28.2044C46.4192 23.1313 46.4169 18.7767 46.412 17.4295ZM27.9534 33.9724L28.0952 34.1149L28.2369 33.9724L37.8053 24.3583L40.7219 27.2889L28.0952 39.9761L19.9923 31.8343L22.9089 28.9037L27.9534 33.9724Z" fill="#38BE76" stroke="#F8F7F9" stroke-width="0.4"/>
</svg>
