<svg width="60" height="60" viewBox="0 0 60 60" fill="none" xmlns="http://www.w3.org/2000/svg">
<g clip-path="url(#clip0_36_203)">
<path d="M30.0967 11.3223C19.7936 11.3223 11.416 19.6999 11.416 30.0029C11.416 40.3064 19.7936 48.684 30.0967 48.684C40.4002 48.684 48.7778 40.3064 48.7778 30.0029C48.7778 19.6999 40.4002 11.3223 30.0967 11.3223ZM30.0967 46.1833C21.1691 46.1833 13.9168 38.9183 13.9168 30.0029C13.9168 21.0875 21.1691 13.823 30.0967 13.823C39.0331 13.823 46.277 21.067 46.277 30.0029C46.277 38.9388 39.0331 46.1833 30.0967 46.1833Z" fill="#38BE76"/>
<path d="M55.805 23.1258L56.2177 15.7108C56.2465 15.2131 55.9759 14.7457 55.53 14.523L48.9278 11.1845L45.5894 4.58237C45.3622 4.14033 44.8977 3.87121 44.4015 3.89465L36.9739 4.29517L30.7844 0.205997C30.3673 -0.0689912 29.8266 -0.0689912 29.409 0.205997L23.2196 4.29517L15.8051 3.88244C15.3069 3.85313 14.84 4.12373 14.6173 4.57015L11.2783 11.1723L4.67666 14.5108C4.23414 14.7374 3.9655 15.2019 3.98895 15.6986L4.40118 23.1136L0.312503 29.303C0.0375151 29.7201 0.0375151 30.2608 0.312503 30.6784L4.38897 36.8801L3.97625 44.295C3.94743 44.7927 4.21753 45.2601 4.66396 45.4828L11.2661 48.8213L14.6046 55.4235C14.8312 55.866 15.2957 56.1346 15.7924 56.1112L23.2074 55.6984L29.3968 59.7871C29.8115 60.0709 30.3575 60.0709 30.7722 59.7871L36.9617 55.6984L44.3766 56.1112C44.8743 56.14 45.3412 55.8694 45.5644 55.4235L48.9029 48.8213L55.5051 45.4828C55.9471 45.2557 56.2162 44.7917 56.1928 44.295L55.78 36.8801L59.8687 30.6906C60.1437 30.2735 60.1437 29.7323 59.8687 29.3152L55.805 23.1258ZM53.479 35.8548C53.3266 36.0785 53.2558 36.3477 53.2793 36.6178L53.6666 43.6322L47.4273 46.7831C47.1895 46.9022 46.9965 47.0957 46.8774 47.3335L43.726 53.5728L36.7116 53.1855C36.4429 53.1757 36.1777 53.245 35.9486 53.3852L30.0967 57.2492L24.2453 53.3852C24.0421 53.248 23.8028 53.1737 23.5576 53.1728H23.495L16.4802 53.5606L13.3293 47.3208C13.2101 47.083 13.0172 46.89 12.7788 46.7709L6.52685 43.6322L6.91467 36.6178C6.92443 36.3491 6.85459 36.0839 6.71441 35.8548L2.85089 30.0029L6.71441 24.151C6.86729 23.9278 6.93811 23.6582 6.91467 23.3885L6.52685 16.3736L12.7666 13.2228C13.0045 13.1036 13.1974 12.9107 13.3166 12.6728L16.4675 6.43304L23.4823 6.82086C23.7505 6.83014 24.0157 6.76078 24.2453 6.6206L30.0967 2.75709L35.9486 6.6206C36.1723 6.77348 36.442 6.8443 36.7116 6.82086L43.726 6.43304L46.8774 12.6728C46.9965 12.9107 47.1895 13.1036 47.4273 13.2228L53.6666 16.3736L53.2793 23.3885C53.2695 23.6567 53.3393 23.9219 53.479 24.151L57.343 30.0029L53.479 35.8548Z" fill="#38BE76"/>
<path d="M22.4841 26.5574C23.4161 26.5574 24.1452 26.8427 24.6715 27.4133C25.1977 27.9775 25.4608 28.7922 25.4608 29.8574C25.4608 30.6118 25.3181 31.2585 25.0328 31.7974C24.7539 32.3363 24.3576 32.7452 23.8441 33.0242C23.3305 33.3031 22.7377 33.4426 22.0657 33.4426C21.7107 33.4426 21.3715 33.4046 21.0481 33.3285C20.7248 33.2461 20.449 33.132 20.2208 32.9861L20.7914 31.8545C21.1147 32.0764 21.53 32.1873 22.0372 32.1873C22.6014 32.1873 23.0484 32.0225 23.3781 31.6928C23.7078 31.3568 23.8853 30.8749 23.9106 30.2473C23.5112 30.6467 22.9596 30.8464 22.2559 30.8464C21.8311 30.8464 21.4444 30.7608 21.0957 30.5896C20.747 30.4184 20.4712 30.1775 20.2683 29.8669C20.0654 29.5499 19.964 29.1853 19.964 28.7732C19.964 28.3294 20.0749 27.9395 20.2968 27.6035C20.5187 27.2675 20.8199 27.0107 21.2003 26.8332C21.587 26.6493 22.015 26.5574 22.4841 26.5574ZM22.5983 29.6957C22.9343 29.6957 23.2069 29.6037 23.4161 29.4199C23.6317 29.2297 23.7395 28.9888 23.7395 28.6971C23.7395 28.4055 23.6349 28.1677 23.4256 27.9839C23.2228 27.8 22.9406 27.7081 22.5792 27.7081C22.2496 27.7081 21.9801 27.7968 21.7709 27.9744C21.568 28.1519 21.4666 28.3928 21.4666 28.6971C21.4666 29.0014 21.568 29.2455 21.7709 29.4294C21.9801 29.6069 22.2559 29.6957 22.5983 29.6957Z" fill="#38BE76"/>
<path d="M28.5394 26.5574C29.4713 26.5574 30.2004 26.8427 30.7267 27.4133C31.2529 27.9775 31.516 28.7922 31.516 29.8574C31.516 30.6118 31.3733 31.2585 31.088 31.7974C30.8091 32.3363 30.4128 32.7452 29.8993 33.0242C29.3857 33.3031 28.793 33.4426 28.1209 33.4426C27.7659 33.4426 27.4267 33.4046 27.1033 33.3285C26.78 33.2461 26.5042 33.132 26.276 32.9861L26.8466 31.8545C27.1699 32.0764 27.5852 32.1873 28.0924 32.1873C28.6566 32.1873 29.1036 32.0225 29.4333 31.6928C29.763 31.3568 29.9405 30.8749 29.9659 30.2473C29.5664 30.6467 29.0149 30.8464 28.3111 30.8464C27.8863 30.8464 27.4996 30.7608 27.1509 30.5896C26.8022 30.4184 26.5264 30.1775 26.3235 29.8669C26.1206 29.5499 26.0192 29.1853 26.0192 28.7732C26.0192 28.3294 26.1301 27.9395 26.352 27.6035C26.5739 27.2675 26.8751 27.0107 27.2555 26.8332C27.6422 26.6493 28.0702 26.5574 28.5394 26.5574ZM28.6535 29.6957C28.9895 29.6957 29.2621 29.6037 29.4713 29.4199C29.6869 29.2297 29.7947 28.9888 29.7947 28.6971C29.7947 28.4055 29.6901 28.1677 29.4808 27.9839C29.278 27.8 28.9958 27.7081 28.6345 27.7081C28.3048 27.7081 28.0353 27.7968 27.8261 27.9744C27.6232 28.1519 27.5218 28.3928 27.5218 28.6971C27.5218 29.0014 27.6232 29.2455 27.8261 29.4294C28.0353 29.6069 28.3111 29.6957 28.6535 29.6957Z" fill="#38BE76"/>
<path d="M33.7957 30.2663C33.3075 30.2663 32.9081 30.1014 32.5975 29.7718C32.2931 29.4357 32.141 28.9888 32.141 28.4308C32.141 27.8729 32.2931 27.4291 32.5975 27.0994C32.9081 26.7634 33.3075 26.5954 33.7957 26.5954C34.2839 26.5954 34.6802 26.7634 34.9845 27.0994C35.2888 27.4291 35.441 27.8729 35.441 28.4308C35.441 28.9888 35.2888 29.4357 34.9845 29.7718C34.6802 30.1014 34.2839 30.2663 33.7957 30.2663ZM37.7614 26.6715H38.8931L34.3473 33.3285H33.2156L37.7614 26.6715ZM33.7957 29.4865C34.0113 29.4865 34.1793 29.3977 34.2998 29.2202C34.4266 29.0427 34.49 28.7795 34.49 28.4308C34.49 28.0821 34.4266 27.819 34.2998 27.6415C34.1793 27.464 34.0113 27.3752 33.7957 27.3752C33.5865 27.3752 33.4185 27.4672 33.2917 27.651C33.1649 27.8285 33.1015 28.0885 33.1015 28.4308C33.1015 28.7732 33.1649 29.0363 33.2917 29.2202C33.4185 29.3977 33.5865 29.4865 33.7957 29.4865ZM38.313 33.4046C37.996 33.4046 37.7107 33.3317 37.4571 33.1859C37.2098 33.0337 37.0164 32.8181 36.877 32.5392C36.7375 32.2602 36.6677 31.9369 36.6677 31.5692C36.6677 31.2014 36.7375 30.8781 36.877 30.5991C37.0164 30.3202 37.2098 30.1078 37.4571 29.962C37.7107 29.8098 37.996 29.7337 38.313 29.7337C38.8012 29.7337 39.1974 29.9017 39.5017 30.2378C39.8124 30.5674 39.9677 31.0112 39.9677 31.5692C39.9677 32.1271 39.8124 32.574 39.5017 32.9101C39.1974 33.2397 38.8012 33.4046 38.313 33.4046ZM38.313 32.6248C38.5285 32.6248 38.6966 32.536 38.817 32.3585C38.9438 32.1746 39.0072 31.9115 39.0072 31.5692C39.0072 31.2268 38.9438 30.9669 38.817 30.7893C38.6966 30.6055 38.5285 30.5135 38.313 30.5135C38.1038 30.5135 37.9357 30.6023 37.8089 30.7798C37.6821 30.9573 37.6187 31.2205 37.6187 31.5692C37.6187 31.9179 37.6821 32.181 37.8089 32.3585C37.9357 32.536 38.1038 32.6248 38.313 32.6248Z" fill="#38BE76"/>
</g>
<defs>
<clipPath id="clip0_36_203">
<rect width="60" height="60" fill="white"/>
</clipPath>
</defs>
</svg>
