<svg width="60" height="60" viewBox="0 0 60 60" fill="none" xmlns="http://www.w3.org/2000/svg">
<g clip-path="url(#clip0_36_220)">
<path d="M53 31.912C52.9737 24.2079 52.2983 16.5197 50.981 8.929C50.7073 7.5379 49.9512 6.28812 48.846 5.4C48.7332 5.01253 48.5433 4.65181 48.2878 4.33943C48.0323 4.02705 47.7164 3.76944 47.359 3.582L45.586 2.661C45.2342 2.47613 44.8491 2.36323 44.4531 2.32889C44.0572 2.29455 43.6584 2.33946 43.28 2.461C43.204 2.486 43.135 2.525 43.062 2.555C40.608 1.337 36.447 0 30 0C23.553 0 19.392 1.337 16.938 2.555C16.865 2.525 16.796 2.486 16.72 2.461C16.3425 2.34012 15.9448 2.29556 15.5499 2.32989C15.155 2.36423 14.7709 2.47678 14.42 2.661L12.64 3.58C12.2821 3.76715 11.9659 4.02493 11.7105 4.33775C11.4551 4.65057 11.2658 5.01194 11.154 5.4C10.0478 6.28907 9.2913 7.54037 9.018 8.933C7.69796 16.5516 7.0229 24.2679 7 32C7.00225 32.7721 7.18413 33.5332 7.53125 34.2229C7.87837 34.9126 8.38121 35.5121 9 35.974V39.94C8.33454 40.4418 7.81771 41.1148 7.5046 41.8872C7.19148 42.6596 7.09381 43.5025 7.222 44.326L8.059 49.761C8.21006 50.772 8.66974 51.7116 9.37517 52.4514C10.0806 53.1912 10.9973 53.6951 12 53.894V57C12 57.7957 12.3161 58.5587 12.8787 59.1213C13.4413 59.6839 14.2044 60 15 60H45C45.7957 60 46.5587 59.6839 47.1213 59.1213C47.6839 58.5587 48 57.7957 48 57V53.894C49.0027 53.6951 49.9194 53.1912 50.6248 52.4514C51.3303 51.7116 51.7899 50.772 51.941 49.761L52.778 44.326C52.9067 43.5026 52.8092 42.6597 52.4961 41.8874C52.1829 41.115 51.6658 40.4423 51 39.941V35.968C51.6244 35.4927 52.1299 34.879 52.477 34.1752C52.824 33.4714 53.003 32.6967 53 31.912ZM48.479 7.94C48.7391 8.36007 48.9217 8.82342 49.018 9.308C50.3138 16.803 50.9768 24.3938 51 32C51 32.7957 50.6839 33.5587 50.1213 34.1213C49.5587 34.6839 48.7957 35 48 35C47.607 34.9999 47.2178 34.9223 46.8548 34.7717C46.4918 34.621 46.162 34.4003 45.8843 34.1222C45.6066 33.844 45.3864 33.5139 45.2364 33.1506C45.0864 32.7873 45.0095 32.398 45.01 32.005C45.043 25.097 45.162 19.12 45.361 14.226C46.613 11.648 47.713 9.452 48.479 7.94ZM43.9 4.376C44.0254 4.33427 44.1579 4.31782 44.2897 4.3276C44.4215 4.33739 44.5501 4.37321 44.668 4.433L46.442 5.354C46.5585 5.4127 46.6621 5.49387 46.7471 5.59283C46.832 5.69179 46.8965 5.80659 46.9368 5.93061C46.9772 6.05462 46.9926 6.18539 46.9821 6.31539C46.9717 6.44538 46.9356 6.57202 46.876 6.688C45.47 9.456 42.707 14.988 39.998 20.915L36.354 19.262C39.096 13.262 41.894 7.662 43.318 4.862C43.3782 4.74662 43.4606 4.64429 43.5605 4.56088C43.6604 4.47748 43.7757 4.41464 43.9 4.376ZM38.26 22.328C36.2529 26.728 34.5369 31.2551 33.123 35.88C32.5636 35.5382 31.9518 35.2909 31.312 35.148C32.7344 30.4973 34.4437 25.9392 36.43 21.5L37.237 21.866L38.26 22.328ZM30 44C28.514 44 27.2 43.938 26 43.839V41C26 39.9391 26.4214 38.9217 27.1716 38.1716C27.9217 37.4214 28.9391 37 30 37C31.0609 37 32.0783 37.4214 32.8284 38.1716C33.5786 38.9217 34 39.9391 34 41V43.839C32.8 43.938 31.486 44 30 44ZM22.979 21.765L23.57 21.497C25.5566 25.9375 27.2659 30.4969 28.688 35.149C28.0483 35.2935 27.4367 35.5425 26.878 35.886C25.4646 31.2589 23.7482 26.7297 21.74 22.328L22.979 21.765ZM34.479 19.965C34.5425 20.1283 34.6276 20.2823 34.732 20.423C32.9387 24.4108 31.3592 28.4912 30 32.647C28.6418 28.4919 27.0632 24.4122 25.271 20.425C25.3754 20.2843 25.4605 20.1303 25.524 19.967C25.6176 19.7206 25.6611 19.4581 25.652 19.1947C25.6429 18.9313 25.5814 18.6723 25.471 18.433C25.379 18.233 25.287 18.033 25.195 17.833C26.822 17.933 28.436 18 30 18C31.564 18 33.178 17.933 34.805 17.833C34.713 18.033 34.621 18.233 34.529 18.433C34.4186 18.6723 34.3571 18.9313 34.348 19.1947C34.3389 19.4581 34.3824 19.7206 34.476 19.967L34.479 19.965ZM41.491 4.03C40.266 6.444 38.071 10.836 35.762 15.769C31.9263 16.062 28.0737 16.062 24.238 15.769C21.929 10.835 19.738 6.443 18.508 4.03C22.1565 2.56387 26.07 1.87257 30 2C33.9297 1.87253 37.8429 2.56384 41.491 4.03ZM13.562 5.354L15.338 4.432C15.5742 4.31385 15.8472 4.29235 16.0991 4.37206C16.3509 4.45178 16.5618 4.62643 16.687 4.859C18.111 7.659 20.909 13.259 23.651 19.259L20.007 20.909C17.3 14.985 14.535 9.456 13.129 6.688C13.0693 6.57208 13.0332 6.44549 13.0227 6.31554C13.0122 6.18559 13.0275 6.05485 13.0677 5.93084C13.108 5.80684 13.1724 5.69202 13.2572 5.59302C13.342 5.49402 13.4456 5.41278 13.562 5.354ZM10.981 9.312C11.0775 8.82606 11.2604 8.36137 11.521 7.94C12.287 9.452 13.387 11.648 14.639 14.226C14.839 19.12 14.957 25.097 14.99 32.005C14.9905 32.398 14.9136 32.7873 14.7636 33.1506C14.6136 33.5139 14.3934 33.844 14.1157 34.1222C13.838 34.4003 13.5083 34.621 13.1452 34.7717C12.7822 34.9223 12.393 34.9999 12 35C11.6021 34.9981 11.2085 34.9174 10.842 34.7626C10.4754 34.6078 10.1431 34.382 9.86425 34.0982C9.58537 33.8144 9.36542 33.4782 9.21709 33.109C9.06876 32.7398 8.99498 32.3449 9 31.947C9.02538 24.3598 9.68804 16.7882 10.981 9.312ZM11 36.9C11.726 37.0485 12.476 37.0335 13.1955 36.8559C13.915 36.6784 14.5859 36.3428 15.1595 35.8736C15.7331 35.4043 16.195 34.8133 16.5116 34.1432C16.8283 33.4732 16.9917 32.7411 16.99 32C16.966 27.09 16.898 22.657 16.79 18.734C17.252 19.719 17.721 20.728 18.19 21.749C18.3358 22.0624 18.5608 22.3324 18.8428 22.5323C19.1248 22.7322 19.454 22.8552 19.798 22.889C21.9741 27.577 23.7887 32.4245 25.226 37.389C24.4326 38.4258 24.0019 39.6945 24 41V43.626C18.894 42.926 16.9 41.417 16.316 40.861C15.1101 39.6713 13.485 39.0029 11.791 39C11.5253 39.0054 11.2606 39.0342 11 39.086V36.9ZM46 57C46 57.2652 45.8946 57.5196 45.7071 57.7071C45.5196 57.8946 45.2652 58 45 58H15C14.7348 58 14.4804 57.8946 14.2929 57.7071C14.1054 57.5196 14 57.2652 14 57V54H46V57ZM26 52C26 51.056 27.711 50 30 50C32.289 50 34 51.056 34 52H26ZM50.8 44.022L49.963 49.456C49.8575 50.1654 49.4998 50.8131 48.9557 51.2803C48.4115 51.7475 47.7172 52.003 47 52H36C36 49.757 33.364 48 30 48C26.636 48 24 49.757 24 52H13C12.2824 52.0035 11.5877 51.7482 11.0431 51.2809C10.4985 50.8137 10.1406 50.1658 10.035 49.456L9.2 44.022C9.14223 43.6483 9.16593 43.2665 9.2695 42.9029C9.37306 42.5392 9.55403 42.2022 9.8 41.915C10.0589 41.6181 10.3803 41.3821 10.7411 41.224C11.1019 41.0658 11.4932 40.9893 11.887 41C13.0314 41.023 14.1223 41.489 14.93 42.3C16.086 43.414 19.869 46 30 46C40.131 46 43.914 43.414 45.07 42.3C45.9044 41.4703 47.0323 41.0032 48.209 41C48.587 41.0005 48.9604 41.0827 49.3036 41.2409C49.6469 41.399 49.952 41.6295 50.198 41.9164C50.444 42.2033 50.6252 42.54 50.7291 42.9034C50.833 43.2668 50.8572 43.6484 50.8 44.022ZM49 39.091C48.7076 39.0346 48.4108 39.0041 48.113 39C46.4512 39.0224 44.8631 39.6897 43.684 40.861C43.105 41.417 41.106 42.922 36 43.626V41C36.0006 39.6911 35.5712 38.4182 34.778 37.377C36.2137 32.415 38.0263 27.5699 40.2 22.884C40.544 22.8502 40.8733 22.7272 41.1552 22.5273C41.4372 22.3274 41.6622 22.0574 41.808 21.744C42.274 20.723 42.743 19.714 43.208 18.729C43.101 22.652 43.033 27.085 43.008 31.995C43.0057 32.7366 43.1687 33.4695 43.4852 34.1402C43.8017 34.8109 44.2637 35.4027 44.8375 35.8725C45.4114 36.3422 46.0828 36.6782 46.8028 36.856C47.5228 37.0337 48.2734 37.0487 49 36.9V39.091Z" fill="#38BE76"/>
</g>
<defs>
<clipPath id="clip0_36_220">
<rect width="60" height="60" fill="white"/>
</clipPath>
</defs>
</svg>
