<svg width="60" height="60" viewBox="0 0 60 60" fill="none" xmlns="http://www.w3.org/2000/svg">
<path d="M27.8196 12.4724L27.9976 12.4528V12.2736V9.76191V9.56191H27.7976H25.6167V5.2H34.7405V9.56191H32.5595H32.3595V9.76191V12.2736V12.4528L32.5375 12.4724C36.6309 12.9249 40.3734 14.5413 43.4272 16.9835L43.5673 17.0955L43.6939 16.9684L47.5395 13.1058L50.6306 16.1834L46.778 20.053L46.6519 20.1796L46.7635 20.3191C49.6695 23.951 51.4071 28.558 51.4071 33.5714C51.4071 45.2956 41.9028 54.8 30.1786 54.8C18.4544 54.8 8.95 45.2956 8.95 33.5714C8.95 22.6446 17.2056 13.6457 27.8196 12.4724ZM30.1786 50.4381C39.4938 50.4381 47.0452 42.8866 47.0452 33.5714C47.0452 24.2562 39.4938 16.7048 30.1786 16.7048C20.8634 16.7048 13.3119 24.2562 13.3119 33.5714C13.3119 42.8866 20.8634 50.4381 30.1786 50.4381ZM32.3595 21.8667V35.7524H27.9976V21.8667H32.3595Z" fill="#38BE76" stroke="#F8F7F9" stroke-width="0.4"/>
</svg>
